<?xml version="1.0" encoding="utf-8"?>
<!-- Generator: Adobe Illustrator 21.0.0, SVG Export Plug-In . SVG Version: 6.00 Build 0)  -->
<svg version="1.1" xmlns="http://www.w3.org/2000/svg" xmlns:xlink="http://www.w3.org/1999/xlink" x="0px" y="0px"
	 viewBox="0 0 1400 980" enable-background="new 0 0 1400 980" xml:space="preserve">
<g id="background">
	<rect fill="#BBEAE9" width="1400" height="980"/>
</g>
<g id="object">
	<path fill="#BAC5A7" d="M0,349.8c0,0,983,113.2,1400,245.7V980H0V349.8z"/>
	<polygon opacity="0.3" fill="#2B0B0D" points="1089.5,857.6 885.3,857.6 716.7,895.3 1155.6,928.8 	"/>
	<polygon opacity="0.3" fill="#2B0B0D" points="200.3,445.1 0,445.1 0,538.1 188.3,538.1 	"/>
	<g>
		<path fill="#223877" d="M715.4,504.9c0.3-0.3,104.8-17.9,104.8-17.9L943,505.1v1.7l-104.3,14.7l-125.7-13.7L715.4,504.9z"/>
		<path fill="#182758" d="M715.4,504.9c0.3-0.3,104.8-19.6,104.8-19.6L943,505.1l-104.3,14.7l-125.7-13.7L715.4,504.9z"/>
		<polygon fill="#F2DA99" points="715.4,480.8 843.1,494.3 840.6,519.5 715.4,504.9 		"/>
		<polygon fill="#223877" points="820.2,468.5 943,478.1 943,479.8 838.6,494.5 712.9,480.8 		"/>
		<polygon fill="#2B478E" points="820.2,466.7 943,478.1 838.6,492.8 712.9,479.1 		"/>
		<polygon fill="#182758" points="712.9,479.1 712.9,480.8 838.6,494.5 838.6,492.8 		"/>
		<polygon fill="#182758" points="712.9,506.1 712.9,507.9 838.6,521.6 838.6,519.8 		"/>
		<polygon fill="#F4E6C1" points="939.5,480.3 840.6,494.3 840.6,519.5 939.5,505.6 		"/>
		<path fill="#F2DA99" d="M842.7,498.3c4-0.7,7.9-1.3,11.9-1.9l11.9-1.8c4-0.6,8-1.2,11.9-1.8l11.9-1.8l11.9-1.7
			c4-0.6,8-1.2,11.9-1.7l12-1.6c4-0.5,8-1.1,12-1.6c-4,0.7-7.9,1.3-11.9,1.9l-11.9,1.8c-4,0.6-8,1.2-11.9,1.8l-11.9,1.8l-11.9,1.7
			c-4,0.6-8,1.2-11.9,1.7l-12,1.6C850.7,497.3,846.7,497.8,842.7,498.3z"/>
		<polygon fill="#F2DA99" points="842.7,508.5 854.6,506.6 866.5,504.8 890.4,501.3 914.3,497.8 926.3,496.2 938.2,494.5 
			926.3,496.4 914.4,498.2 890.5,501.7 866.6,505.1 854.6,506.8 		"/>
		<polygon fill="#F2DA99" points="840.6,502.4 852.5,500.6 864.4,498.8 888.3,495.2 912.2,491.8 924.1,490.1 936.1,488.5 
			924.2,490.3 912.2,492.1 888.4,495.7 864.5,499.1 852.5,500.8 		"/>
		<polygon fill="#F2DA99" points="840.6,503.7 852.5,501.8 864.4,500 888.3,496.5 912.2,493.1 924.1,491.4 936.1,489.7 924.2,491.6 
			912.2,493.4 888.4,496.9 864.5,500.4 852.5,502 		"/>
		<polygon fill="#F2DA99" points="839.7,504.9 851.6,503.1 863.5,501.3 887.4,497.8 911.3,494.3 923.2,492.6 935.2,491 923.3,492.9 
			911.3,494.7 887.5,498.2 863.6,501.6 851.6,503.3 		"/>
		<polygon fill="#223877" points="943,479.8 943,505.1 939.5,505.6 939.5,480.3 		"/>
	</g>
	<g>
		<path fill="#7F4F50" d="M78.3,448c0.3-0.4,126.4-4.6,126.4-4.6l140.9,30.1v2l-119.8,16.9L78.3,476.7V448z"/>
		<path fill="#89595C" d="M78.3,446c0.3-0.4,126.4-4.6,126.4-4.6l140.9,32.1l-119.8,16.9L78.3,474.7V446z"/>
		<polygon fill="#F2DA99" points="78.3,436.3 228,451.7 228,490.1 78.3,473.3 		"/>
		<polygon fill="#7F4F50" points="204.7,422.1 345.6,433.2 345.6,435.2 225.8,452 78.3,436.3 		"/>
		<polygon fill="#89595C" points="204.7,420.1 345.6,433.2 225.8,450 78.3,434.3 		"/>
		<polygon fill="#683E40" points="78.3,434.3 78.3,436.3 225.8,452 225.8,450 		"/>
		<polygon fill="#683E40" points="78.3,474.7 78.3,476.7 225.8,492.4 225.8,490.4 		"/>
		<polygon fill="#F4E6C1" points="341.6,435.7 228,451.7 228,490.1 341.6,474.1 		"/>
		<path fill="#F2DA99" d="M230.4,456.4c4.6-0.8,9.1-1.5,13.7-2.2l13.7-2.1c4.6-0.7,9.1-1.4,13.7-2.1l13.7-2l13.7-2
			c4.6-0.6,9.1-1.3,13.7-1.9l13.7-1.9c4.6-0.6,9.2-1.2,13.7-1.8c-4.6,0.8-9.1,1.5-13.7,2.2l-13.7,2.1c-4.6,0.7-9.1,1.4-13.7,2.1
			l-13.7,2l-13.7,2c-4.6,0.6-9.1,1.3-13.7,1.9l-13.7,1.9C239.6,455.2,235,455.8,230.4,456.4z"/>
		<polygon fill="#F2DA99" points="230.4,468 244.1,465.9 257.8,463.8 285.2,459.8 312.7,455.8 326.4,453.9 340.1,452 326.4,454.1 
			312.7,456.2 285.3,460.3 257.9,464.2 244.2,466.1 		"/>
		<polygon fill="#F2DA99" points="230.4,484.1 244.1,482 257.8,479.9 285.2,475.9 312.7,471.9 326.4,470 340.1,468.1 326.4,470.2 
			312.7,472.3 285.3,476.4 257.9,480.3 244.2,482.2 		"/>
		<polygon fill="#F2DA99" points="228,461.1 241.7,459 255.4,456.9 282.8,452.8 310.2,448.9 323.9,447 337.7,445.1 324,447.2 
			310.3,449.3 282.9,453.3 255.5,457.3 241.7,459.2 		"/>
		<polygon fill="#F2DA99" points="228,462.5 241.7,460.4 255.4,458.3 282.8,454.3 310.2,450.3 323.9,448.4 337.7,446.5 324,448.6 
			310.3,450.7 282.9,454.8 255.5,458.7 241.7,460.6 		"/>
		<polygon fill="#F2DA99" points="227,464 240.7,461.8 254.4,459.8 281.8,455.7 309.2,451.8 322.9,449.9 336.7,448 323,450.1 
			309.3,452.2 281.9,456.2 254.4,460.2 240.7,462.1 		"/>
		<polygon fill="#F2DA99" points="228,473.2 241.7,471.1 255.4,469 282.8,464.9 310.2,461 323.9,459.1 337.7,457.2 324,459.3 
			310.3,461.4 282.9,465.4 255.5,469.4 241.7,471.3 		"/>
		<polygon fill="#F2DA99" points="227,474.6 240.7,472.5 254.4,470.5 281.8,466.4 309.2,462.5 322.9,460.5 336.7,458.7 323,460.8 
			309.3,462.8 281.9,466.9 254.4,470.8 240.7,472.8 		"/>
		<polygon fill="#F2DA99" points="228,477.1 241.7,474.9 255.4,472.9 282.8,468.8 310.2,464.9 323.9,463 337.7,461.1 324,463.2 
			310.3,465.3 282.9,469.3 255.5,473.3 241.7,475.2 		"/>
		<polygon fill="#F2DA99" points="227,478.5 240.7,476.4 254.4,474.3 281.8,470.3 309.2,466.3 322.9,464.4 336.7,462.5 323,464.7 
			309.3,466.7 281.9,470.8 254.4,474.7 240.7,476.6 		"/>
		<polygon fill="#7F4F50" points="345.6,433.2 345.6,475.6 341.6,476.1 341.6,433.7 		"/>
		<polygon fill="#F4E6C1" points="224.1,441 281.2,432.9 262,431.6 208.6,439.3 		"/>
	</g>
	<g>
		<path fill="#E54C4C" d="M33.7,510.6c0.3-0.5,147.4-5.5,147.4-5.5l168.5,13.2v2.4l-143.3,20.2L33.7,522V510.6z"/>
		<path fill="#FC6262" d="M33.7,508.2c0.3-0.5,147.4-5.5,147.4-5.5l168.5,15.6l-143.3,20.2L33.7,519.6V508.2z"/>
		<polygon fill="#F2DA99" points="33.7,496.5 209,515 209,538.1 33.7,518 		"/>
		<polygon fill="#E54C4C" points="181.1,479.5 349.6,492.8 349.6,495.2 206.4,515.3 33.7,496.5 		"/>
		<polygon fill="#FC6262" points="181.1,477.2 349.6,492.8 206.4,513 33.7,494.1 		"/>
		<polygon fill="#CC4040" points="33.7,494.1 33.7,496.5 206.4,515.3 206.4,513 		"/>
		<polygon fill="#CC4040" points="33.7,519.6 33.7,522 206.4,540.9 206.4,538.5 		"/>
		<polygon fill="#F4E6C1" points="344.9,495.8 209,515 209,538.1 344.9,519 		"/>
		<path fill="#F2DA99" d="M211.9,520.6c5.5-0.9,10.9-1.7,16.4-2.6l16.4-2.5c5.5-0.9,10.9-1.6,16.4-2.5l16.4-2.4l16.4-2.4
			c5.5-0.8,10.9-1.6,16.4-2.3l16.4-2.3c5.5-0.7,10.9-1.5,16.4-2.2c-5.5,0.9-10.9,1.7-16.4,2.6l-16.4,2.5c-5.5,0.9-10.9,1.6-16.4,2.5
			l-16.4,2.4l-16.4,2.3c-5.5,0.8-10.9,1.6-16.4,2.3l-16.4,2.3C222.9,519.1,217.4,519.9,211.9,520.6z"/>
		<polygon fill="#F2DA99" points="211.9,534.5 228.3,531.9 244.7,529.5 277.5,524.6 310.3,519.9 326.7,517.6 343.1,515.3 
			326.7,517.9 310.3,520.4 277.6,525.2 244.7,529.9 228.3,532.2 		"/>
		<polygon fill="#F2DA99" points="209,526.2 225.4,523.6 241.8,521.2 274.5,516.3 307.4,511.6 323.8,509.3 340.2,507.1 323.8,509.6 
			307.4,512.1 274.6,516.9 241.8,521.6 225.4,523.9 		"/>
		<polygon fill="#F2DA99" points="209,527.9 225.4,525.4 241.8,522.9 274.5,518 307.4,513.3 323.8,511 340.2,508.8 323.8,511.3 
			307.4,513.8 274.6,518.6 241.8,523.3 225.4,525.6 		"/>
		<polygon fill="#F2DA99" points="207.8,529.6 224.2,527.1 240.5,524.6 273.3,519.8 306.1,515.1 322.6,512.8 339,510.5 322.6,513.1 
			306.2,515.5 273.4,520.4 240.6,525.1 224.2,527.4 		"/>
		<path fill="#F4E6C1" d="M35.3,503.6c2.7,0.3,5.3,0.7,8,1.1l8,1.1l58.3,2.3l31.9,4.8l31.9,4.9l15.9,2.5l15.9,2.6l-16-2.3l-15.9-2.3
			l-31.9-4.8l-31.9-4.9l-58.3-2.5L35.3,503.6z"/>
		<path fill="#F4E6C1" d="M35.3,507.3c2.7,0.3,5.3,0.7,8,1.1l8,1.1l58.3,2.3l31.9,4.8l31.9,4.9l15.9,2.5l15.9,2.6l-16-2.3l-15.9-2.3
			l-31.9-4.8l-31.9-4.9l-58.3-2.5L35.3,507.3z"/>
		<path fill="#F4E6C1" d="M35.3,511c2.7,0.3,5.3,0.7,8,1.1l8,1.1l58.3,2.3l31.9,4.8l31.9,4.9l15.9,2.5l15.9,2.6l-16-2.3l-15.9-2.3
			l-31.9-4.8l-31.9-4.9l-58.3-2.5L35.3,511z"/>
		<polygon fill="#E54C4C" points="349.6,495.2 349.6,518.3 344.9,519 344.9,495.8 		"/>
	</g>
	<polygon opacity="0.3" fill="#2B0B0D" points="533.2,938.1 0,938.1 0,820.5 293.5,820.5 	"/>
	<path fill="#32546B" d="M87.6,808.1c0.9-1.2,380.1-14.3,380.1-14.3l437,85.8v6.2l-371.5,52.3L87.6,889.3V808.1z"/>
	<path fill="#4E687D" d="M87.6,801.9c0.9-1.2,380.1-14.3,380.1-14.3l437,92l-371.5,52.3L87.6,883.1V801.9z"/>
	<polygon fill="#F2DA99" points="87.6,771.7 540.1,819.5 540.1,930.9 87.6,879 	"/>
	<path fill="#32546B" d="M87.6,742c0.9-1.2,380.1-14.3,380.1-14.3l437,34.3v6.2l-371.5,52.3L87.6,771.7V742z"/>
	<path fill="#4E687D" d="M87.6,735.8c0.9-1.2,380.1-14.3,380.1-14.3l437,40.5l-371.5,52.3L87.6,765.5V735.8z"/>
	<polygon fill="#204356" points="87.6,765.5 87.6,771.7 533.2,820.5 533.2,814.3 	"/>
	<polygon fill="#204356" points="87.6,883.1 87.6,889.3 533.2,938.1 533.2,931.9 	"/>
	<polygon fill="#32546B" points="892.4,887.5 904.7,885.5 904.7,762 892.4,764 	"/>
	<polygon fill="#F4E6C1" points="892.4,769.9 540.1,819.5 540.1,930.9 892.4,881.4 	"/>
	<path fill="#F2DA99" d="M547.7,834c14.1-2.3,28.3-4.5,42.4-6.8l42.5-6.5c14.2-2.2,28.3-4.2,42.5-6.4l42.5-6.3l42.5-6.1
		c14.2-2,28.4-4.1,42.5-6l42.6-5.9c14.2-1.9,28.4-3.8,42.6-5.6c-14.1,2.3-28.3,4.5-42.4,6.8l-42.5,6.5c-14.2,2.2-28.3,4.2-42.5,6.4
		l-42.5,6.3l-42.5,6.1c-14.2,2-28.4,4.1-42.5,6l-42.6,5.9C576.1,830.3,561.9,832.2,547.7,834z"/>
	<polygon fill="#F2DA99" points="547.7,870.1 590.1,863.5 632.6,857.1 717.6,844.5 802.7,832.3 845.3,826.3 887.8,820.5 
		845.4,827.1 802.9,833.5 717.9,846.1 632.8,858.3 590.2,864.3 	"/>
	<polygon fill="#F2DA99" points="547.7,884.6 590.1,878 632.6,871.6 717.6,859 802.7,846.8 845.3,840.8 887.8,835 845.4,841.6 
		802.9,848 717.9,860.6 632.8,872.8 590.2,878.7 	"/>
	<polygon fill="#F2DA99" points="547.7,899 590.1,892.4 632.6,886 717.6,873.4 802.7,861.2 845.3,855.2 887.8,849.4 845.4,856 
		802.9,862.4 717.9,875 632.8,887.2 590.2,893.2 	"/>
	<polygon fill="#F2DA99" points="540.1,848.6 582.5,842 625,835.6 710.1,823 795.1,810.8 837.7,804.8 880.3,799 837.8,805.6 
		795.3,812 710.3,824.6 625.2,836.8 582.7,842.8 	"/>
	<polygon fill="#F2DA99" points="540.1,853 582.5,846.5 625,840 710.1,827.5 795.1,815.2 837.7,809.3 880.3,803.4 837.8,810 
		795.3,816.4 710.3,829 625.2,841.2 582.7,847.2 	"/>
	<polygon fill="#F2DA99" points="536.9,857.6 579.4,851 621.9,844.6 706.9,832 792,819.8 834.5,813.8 877.1,808 834.7,814.6 
		792.2,821 707.1,833.6 622.1,845.8 579.5,851.8 	"/>
	<path fill="#F4E6C1" d="M91.6,790.2c6.9,0.9,13.8,1.9,20.7,2.8L133,796l149.2,6l82.7,12.3l82.6,12.7l41.3,6.5l41.3,6.7l-41.4-5.9
		l-41.4-6.1l-82.7-12.4L282,803.2l-149.1-6.5L91.6,790.2z"/>
	<path fill="#F4E6C1" d="M91.6,799.7c6.9,0.9,13.8,1.9,20.7,2.8l20.7,2.9l149.2,6l82.7,12.3l82.6,12.7l41.3,6.5l41.3,6.7l-41.4-5.9
		l-41.4-6.1l-82.7-12.4L282,812.7l-149.1-6.5L91.6,799.7z"/>
	<path fill="#F4E6C1" d="M91.6,809.2c6.9,0.9,13.8,1.9,20.7,2.8L133,815l149.2,6l82.7,12.3l82.6,12.7l41.3,6.5l41.3,6.7l-41.4-5.9
		l-41.4-6.1l-82.7-12.4L282,822.2l-149.1-6.5L91.6,809.2z"/>
	<path fill="#F4E6C1" d="M91.6,823.7c6.9,0.9,13.8,1.9,20.7,2.8l20.7,2.9l149.2,6l82.7,12.3l82.6,12.7l41.3,6.5l41.3,6.7l-41.4-5.9
		l-41.4-6.1l-82.7-12.4L282,836.7l-149.1-6.5L91.6,823.7z"/>
	<path fill="#F4E6C1" d="M91.6,838.2c6.9,0.9,13.8,1.9,20.7,2.8L133,844l149.2,6l82.7,12.3l82.6,12.7l41.3,6.5l41.3,6.7l-41.4-5.9
		l-41.4-6.1l-82.7-12.4L282,851.2l-149.1-6.5L91.6,838.2z"/>
	<path fill="#F4E6C1" d="M91.6,852.7c6.9,0.9,13.8,1.9,20.7,2.8l20.7,2.9l149.2,6l82.7,12.3l82.6,12.7l41.3,6.5l41.3,6.7l-41.4-5.9
		l-41.4-6.1l-82.7-12.4L282,865.7l-149.1-6.5L91.6,852.7z"/>
	<path fill="#223877" d="M87.6,725.5c0.9-1.2,380.1-14.3,380.1-14.3l437,34.3v6.2l-371.5,52.3L87.6,755.3V725.5z"/>
	<path fill="#89595C" d="M87.6,719.3c0.9-1.2,380.1-14.3,380.1-14.3l437,40.5l-371.5,52.3L87.6,749.1V719.3z"/>
	<polygon fill="#F2DA99" points="87.6,689.1 540.1,737 540.1,796.9 87.6,744.9 	"/>
	<path fill="#223877" d="M87.6,659.4c0.9-1.2,380.1-14.3,380.1-14.3l437,34.3v6.2l-371.5,52.3L87.6,689.1V659.4z"/>
	<path fill="#182758" d="M87.6,653.2c0.9-1.2,380.1-14.3,380.1-14.3l437,40.5l-371.5,52.3L87.6,682.9V653.2z"/>
	<polygon fill="#182758" points="87.6,682.9 87.6,689.1 533.2,737.9 533.2,731.7 	"/>
	<polygon fill="#182758" points="87.6,749.1 87.6,755.3 533.2,804.1 533.2,797.9 	"/>
	<polygon fill="#223877" points="892.4,753.4 904.7,751.4 904.7,679.4 892.4,681.4 	"/>
	<polygon fill="#F4E6C1" points="892.4,687.4 540.1,737 540.1,796.9 892.4,747.3 	"/>
	<path fill="#F2DA99" d="M547.7,751.4c14.1-2.3,28.3-4.5,42.4-6.8l42.5-6.5c14.2-2.2,28.3-4.2,42.5-6.4l42.5-6.3l42.5-6.1
		c14.2-2,28.4-4.1,42.5-6l42.6-5.9c14.2-1.9,28.4-3.8,42.6-5.6c-14.1,2.3-28.3,4.5-42.4,6.8l-42.5,6.5c-14.2,2.2-28.3,4.2-42.5,6.4
		l-42.5,6.3l-42.5,6.1c-14.2,2-28.4,4.1-42.5,6l-42.6,5.9C576.1,747.7,561.9,749.6,547.7,751.4z"/>
	<polygon fill="#F2DA99" points="547.7,787.5 590.1,780.9 632.6,774.5 717.6,761.9 802.7,749.7 845.3,743.8 887.8,737.9 
		845.4,744.5 802.9,750.9 717.9,763.5 632.8,775.7 590.2,781.7 	"/>
	<polygon fill="#F2DA99" points="540.1,766 582.5,759.4 625,753 710.1,740.4 795.1,728.2 837.7,722.2 880.3,716.4 837.8,723 
		795.3,729.4 710.3,742 625.2,754.2 582.7,760.2 	"/>
	<polygon fill="#F2DA99" points="540.1,770.5 582.5,763.9 625,757.5 710.1,744.9 795.1,732.7 837.7,726.7 880.3,720.9 837.8,727.4 
		795.3,733.9 710.3,746.4 625.2,758.7 582.7,764.6 	"/>
	<polygon fill="#F2DA99" points="536.9,775 579.4,768.4 621.9,762 706.9,749.4 792,737.2 834.5,731.2 877.1,725.4 834.7,732 
		792.2,738.4 707.1,751 622.1,763.2 579.5,769.2 	"/>
	<path fill="#F4E6C1" d="M91.6,707.6c6.9,0.9,13.8,1.9,20.7,2.8l20.7,2.9l149.2,6l82.7,12.3l82.6,12.7l41.3,6.5l41.3,6.7l-41.4-5.9
		l-41.4-6.1l-82.7-12.4L282,720.6l-149.1-6.5L91.6,707.6z"/>
	<path fill="#F4E6C1" d="M91.6,717.1c6.9,0.9,13.8,1.9,20.7,2.8l20.7,2.9l149.2,6l82.7,12.3l82.6,12.7l41.3,6.5l41.3,6.7l-41.4-5.9
		l-41.4-6.1l-82.7-12.4L282,730.1l-149.1-6.5L91.6,717.1z"/>
	<path fill="#F4E6C1" d="M91.6,726.6c6.9,0.9,13.8,1.9,20.7,2.8l20.7,2.9l149.2,6l82.7,12.3l82.6,12.7l41.3,6.5l41.3,6.7l-41.4-5.9
		l-41.4-6.1l-82.7-12.4L282,739.6l-149.1-6.5L91.6,726.6z"/>
	<path fill="#E54C4C" d="M87.6,654c0.9-1.2,375-14,375-14l428.7,33.7v6.1L526.8,731L87.6,683.2V654z"/>
	<path fill="#FC6262" d="M87.6,647.9c0.9-1.2,375-14,375-14l428.7,39.8L526.8,725L87.6,677.1V647.9z"/>
	<polygon fill="#F2DA99" points="87.6,618.3 533.6,665.2 533.6,724 87.6,673 	"/>
	<path fill="#E54C4C" d="M87.6,589.1c0.9-1.2,375-14,375-14l428.7,33.7v6.1l-364.5,51.3L87.6,618.3V589.1z"/>
	<path fill="#FC6262" d="M87.6,583c0.9-1.2,375-14,375-14l428.7,39.8l-364.5,51.3L87.6,612.2V583z"/>
	<polygon fill="#CC4040" points="87.6,612.2 87.6,618.3 526.8,666.2 526.8,660.1 	"/>
	<polygon fill="#CC4040" points="87.6,677.1 87.6,683.2 526.8,731 526.8,725 	"/>
	<polygon fill="#E54C4C" points="879.3,681.4 891.4,679.4 891.4,608.8 879.3,610.7 	"/>
	<polygon fill="#F4E6C1" points="879.3,616.5 533.6,665.2 533.6,724 879.3,675.3 	"/>
	<path fill="#F2DA99" d="M541,679.4c13.9-2.3,27.8-4.4,41.6-6.6l41.7-6.4c13.9-2.2,27.8-4.2,41.7-6.2l41.7-6.2l41.7-6
		c13.9-2,27.8-4,41.7-5.9l41.8-5.8c13.9-1.8,27.9-3.8,41.8-5.5c-13.9,2.3-27.8,4.4-41.6,6.6l-41.7,6.4c-13.9,2.2-27.8,4.2-41.7,6.2
		l-41.7,6.2l-41.7,6c-13.9,2-27.8,4-41.7,5.9l-41.8,5.8C568.9,675.7,554.9,677.7,541,679.4z"/>
	<polygon fill="#F2DA99" points="541,714.8 582.7,708.4 624.4,702.1 707.8,689.7 791.2,677.7 833,671.9 874.8,666.2 833.1,672.6 
		791.4,678.9 708,691.3 624.5,703.2 582.8,709.1 	"/>
	<polygon fill="#F2DA99" points="533.6,693.7 575.2,687.3 616.9,681 700.3,668.6 783.8,656.6 825.6,650.8 867.3,645.1 825.7,651.5 
		784,657.8 700.6,670.2 617.1,682.1 575.3,688 	"/>
	<polygon fill="#F2DA99" points="533.6,698.1 575.2,691.6 616.9,685.3 700.3,673 783.8,661 825.6,655.1 867.3,649.4 825.7,655.9 
		784,662.2 700.6,674.5 617.1,686.5 575.3,692.4 	"/>
	<polygon fill="#F2DA99" points="530.5,702.5 572.2,696.1 613.8,689.8 697.3,677.4 780.7,665.4 822.5,659.6 864.3,653.9 
		822.6,660.3 780.9,666.6 697.5,679 614,690.9 572.3,696.8 	"/>
	<path fill="#F4E6C1" d="M91.5,636.4c6.8,0.9,13.5,1.8,20.3,2.8l20.3,2.9l148.4,5.9l81.1,12.1l81.1,12.5l40.5,6.4l40.5,6.5
		l-40.6-5.8l-40.6-5.9l-81.1-12.1l-81.1-12.5L132,642.8L91.5,636.4z"/>
	<path fill="#F4E6C1" d="M91.5,645.7c6.8,0.9,13.5,1.8,20.3,2.8l20.3,2.9l148.4,5.9l81.1,12.1l81.1,12.5l40.5,6.4l40.5,6.5
		l-40.6-5.8l-40.6-5.9L361.5,671l-81.1-12.5L132,652.1L91.5,645.7z"/>
	<path fill="#F4E6C1" d="M91.5,655c6.8,0.9,13.5,1.8,20.3,2.8l20.3,2.9l148.4,5.9l81.1,12.1l81.1,12.5l40.5,6.4l40.5,6.5l-40.6-5.8
		l-40.6-5.9l-81.1-12.1l-81.1-12.5L132,661.5L91.5,655z"/>
	<path fill="#7F4F50" d="M87.6,581.3c0.8-1.1,352.8-12.8,352.8-12.8l393.1,30.9v5.6L499.3,652L87.6,608.1V581.3z"/>
	<path fill="#89595C" d="M87.6,575.8c0.8-1.1,352.8-12.8,352.8-12.8l393.1,36.5l-334.2,47.1L87.6,602.5V575.8z"/>
	<polygon fill="#F2DA99" points="87.6,548.6 505.5,591.6 505.5,645.5 87.6,598.8 	"/>
	<polygon fill="#7F4F50" points="440.4,509 833.5,539.9 833.5,545.5 499.3,592.5 87.6,548.6 	"/>
	<polygon fill="#89595C" points="440.4,503.4 833.5,539.9 499.3,586.9 87.6,543 	"/>
	<polygon fill="#683E40" points="87.6,543 87.6,548.6 499.3,592.5 499.3,586.9 	"/>
	<polygon fill="#683E40" points="87.6,602.5 87.6,608.1 499.3,652 499.3,646.4 	"/>
	<polygon fill="#7F4F50" points="822.4,606.4 833.5,604.7 833.5,539.9 822.4,541.7 	"/>
	<polygon fill="#F4E6C1" points="822.4,547 505.5,591.6 505.5,645.5 822.4,600.9 	"/>
	<path fill="#F2DA99" d="M512.3,604.7c12.7-2.1,25.5-4.1,38.2-6.1l38.2-5.9c12.7-2,25.5-3.8,38.2-5.7l38.2-5.7l38.3-5.5
		c12.8-1.8,25.5-3.7,38.3-5.4l38.3-5.3c12.8-1.7,25.5-3.4,38.3-5.1c-12.7,2.1-25.5,4.1-38.2,6.1l-38.2,5.9
		c-12.7,2-25.5,3.8-38.2,5.7l-38.2,5.7l-38.3,5.5c-12.8,1.8-25.5,3.7-38.3,5.4l-38.3,5.3C537.8,601.3,525.1,603,512.3,604.7z"/>
	<polygon fill="#F2DA99" points="512.3,637.1 550.5,631.2 588.7,625.4 665.2,614.1 741.7,603.1 780,597.7 818.3,592.5 780.1,598.4 
		741.9,604.2 665.4,615.5 588.9,626.5 550.6,631.9 	"/>
	<polygon fill="#F2DA99" points="505.5,617.8 543.7,611.9 581.9,606.1 658.4,594.8 734.9,583.8 773.2,578.4 811.5,573.2 
		773.3,579.1 735,584.9 658.6,596.2 582,607.2 543.8,612.5 	"/>
	<polygon fill="#F2DA99" points="505.5,621.8 543.7,615.8 581.9,610.1 658.4,598.8 734.9,587.8 773.2,582.4 811.5,577.2 
		773.3,583.1 735,588.9 658.6,600.2 582,611.2 543.8,616.5 	"/>
	<polygon fill="#F2DA99" points="502.6,625.8 540.8,619.9 579.1,614.1 655.5,602.8 732.1,591.8 770.3,586.5 808.6,581.2 
		770.4,587.2 732.2,592.9 655.7,604.2 579.2,615.2 540.9,620.6 	"/>
	<path fill="#F4E6C1" d="M91.2,565.2c6.2,0.8,12.4,1.7,18.6,2.6l18.6,2.6l145.1,5.4l74.4,11.1l74.3,11.5l37.1,5.8l37.1,6l-37.2-5.3
		l-37.2-5.5l-74.4-11.1l-74.3-11.4l-145-5.8L91.2,565.2z"/>
	<path fill="#F4E6C1" d="M91.2,573.8c6.2,0.8,12.4,1.7,18.6,2.6l18.6,2.6l145.1,5.4l74.4,11.1l74.3,11.5l37.1,5.8l37.1,6l-37.2-5.3
		L422,608l-74.4-11.1l-74.3-11.4l-145-5.8L91.2,573.8z"/>
	<path fill="#F4E6C1" d="M91.2,582.3c6.2,0.8,12.4,1.7,18.6,2.6l18.6,2.6l145.1,5.4l74.4,11.1l74.3,11.5l37.1,5.8l37.1,6l-37.2-5.3
		l-37.2-5.5l-74.4-11.1L273.3,594l-145-5.8L91.2,582.3z"/>
	<path opacity="0.3" fill="#2B0B0D" d="M605.7,522c0,0-87.1-4.3-100.2,0c-13.1,4.3-9.8,7.9-29.1,8.8c-19.3,0.9-21.3-6.9-36,0
		c-14.7,6.9-14,12.9-8.7,16.2c5.3,3.3,11.3,2.7,10,9.3c-1.3,6.6,214,8.6,214,8.6l2.8,62.3l16.8,11.9l5.7,71.7l5.5,5.4l-7.1,67.1
		l15.4,49.3l5.2-12.3v-52.6l16.2-134.5l-9.8-10.6l9.8-55.1l32.7,58.1l32.6-1.6l7.3,118.8l14.5,23l19,9v-16.4L803,620.6l-17.5-10.4
		l6.2-63.7L713,520.1L605.7,522z"/>
	<g>
		<path fill="#E8CE74" d="M735.9,381.7c0-0.7,4-26.2,4-26.2s6.3,23.1,11,28.5c0,0-0.1,2.9-0.6,2.9
			C749.9,386.8,735.9,381.7,735.9,381.7z"/>
		<path fill="#4F687F" d="M605.7,529.5c0,0,15.3,26.3,49.4,28.4c29.4,1.8,102.6-13.4,124-10.3l74.7,185.1l19.4-5.7l-46.8-219.8
			c-2.3-9.9-7.3-14.6-17.3-16.6c-23.7-4.7-70-11.7-84.5-11C724.7,479.5,638.1,490,605.7,529.5z"/>
		<path fill="#617E93" d="M862.1,730.2l11.1-3.3l-46.8-219.8c-2.3-9.9-7.3-14.6-17.3-16.6c-23.7-4.7-70-11.7-84.5-11
			c0,0-7.4,0.9-18.8,3.2l-5.5,4.2c0,0,98.7,16,103.8,18.8C808.3,507.9,844.8,664.6,862.1,730.2z"/>
		<path fill="#864536" d="M625.2,272.1c0,0-13.7-6.5-17.7-22.1c-4-15.7,6-22.2,3.4-32.8c-2.6-10.5-8.6-32.2,0.9-60.4
			c9.4-28.2,31.4-31.6,31.4-31.6s14.8-24.8,35.9-16.3c21.1,8.6,26.5,33.4,43.6,44.2c17.1,10.8,35.9,28.3,37.6,51.9
			c1.7,23.6-20.2,31.1-17.1,40.8c3.1,9.7,6.2,32.8-1.1,45c-8.1,13.5-27.1,15.7-33.7,13L625.2,272.1z"/>
		<path fill="#F2947E" d="M689,285.8c0,0,3.1,1.3,7,3.9c4.9,3.4,11.1,9,13.5,17.1c4.3,14.5,19.9,81.4,19.9,81.4s-44.3,42.4-43,40.5
			C687.7,426.8,689,285.8,689,285.8z"/>
		<path fill="#182759" d="M591.5,366.1c0,0,16.8,27.6,19.7,38.1c2.9,10.5,4.6,21.1,2.9,31.9c-1.7,10.8-21.6,74.7-10.9,94.7
			c0,0,52.3-26.8,71.1-30.8c18.8-4,50.5-20.5,50.5-20.5l-17.9-8c0,0-20.8-31.6-14.1-54.8s28.3-41.5,21.5-63.2
			c-6.8-21.7-25.1-67.6-25.1-67.6s-57-12.2-99.8,0.1L591.5,366.1z"/>
		<path fill="#F2DA99" d="M679.3,375.8c0,0,3-9,3.6-9c0.6,0,44.1,4.4,68,17.1c0,0-6.1-24.1-0.7-30.9l3.3,25.5c0,0,2.6-18.1,9.8-24.4
			l4,0.1l14.3-1.3l-7,46.9c0,0-62.2,9.4-62.9,9.1C711,408.7,679.3,375.8,679.3,375.8z"/>
		<path fill="#4F687F" d="M701,554.6l31.6,23.3l-39.3,195.8l23,3.4c0,0,70.4-187.7,72.3-205.9c1.8-18.2-9.6-23.7-9.6-23.7
			s-22.9-2.1-39.7,0C722.7,549.6,701,554.6,701,554.6z"/>
		<path fill="#F2947E" d="M636,224c1.1,24-14.5,56.8-14.5,56.8s21.7,29.1,39.9,29.6c18.2,0.6,13.8-26.9,13.8-26.9
			s-15.5-12.7-10.4-34.4L636,224z"/>
		<path fill="#D67B69" d="M664.3,264.1C664.3,264.1,664.4,264.1,664.3,264.1c-0.8-4.4-0.9-9.4,0.4-15L636,224
			c0.3,6-0.5,12.6-1.8,19.1C642.9,252.6,655.5,264.4,664.3,264.1z"/>
		<path fill="#F2947E" d="M715.8,192.9c0,0-2.7,2.9-5.6,15.1c-2.9,12.3-22,39.3-30.9,43.1c-8.8,3.7-17.4,3.1-28.2-8.3
			c-10.8-11.4-18.5-14.8-20-30.2c0,0-10.3-5.1-9.7-21.4c0.6-16.3,8-21.7,11.7-18.5c3.7,3.1,4,11.4,4,11.4l-0.3,12.8
			c0,0,8-0.6,16.5-16c8.6-15.4,7.4-24.2,7.4-24.2s11.4,16.3,22.5,17.4C694.4,175.2,709.8,182.1,715.8,192.9z"/>
		<path fill="#864536" d="M666.8,466.7l8.2-93.5c0,0,71,16.3,76.9,16.3s11.1-2.1,11.1-2.1l22.5-37.6l-17.1,103.5
			c0,0-17.5,24.2-20.1,26.5c-2.6,2.3-5.8,2.5-10.3,2.3C733.5,481.9,666.8,466.7,666.8,466.7z"/>
		<path fill="#9E5A4F" d="M785.5,349.8L763,387.4c0,0-1.9,0.8-4.8,1.4L746.5,481c0.6-0.3,1.2-0.7,1.8-1.2
			c2.6-2.3,20.1-26.5,20.1-26.5L785.5,349.8z"/>
		<path fill="#F2947E" d="M853.8,732.6l9.3,22.8c0,0-3.4,7.9,0,11.3c3.4,3.4,54,24.3,54,22.7c0-10.8-6.1-13-14-18.5
			c-11.8-8.3-25.4-20.4-25.4-20.4l-6.5-23.1L853.8,732.6z"/>
		<path fill="#182759" d="M917.1,789.5c0-10.8-6.1-13-14-18.5c-7.1-5-14.7-11.3-19.8-15.6l0,0c0,0-3.9,5.6-10.2,5.4
			c-6.3-0.1-10.1-5.4-10.1-5.4s-3.4,7.9,0,11.3C866.5,770.2,917.1,791.1,917.1,789.5z"/>
		<path fill="#F2947E" d="M696.9,774.3l-3.6,17.3c0,0-3,4.9-3.3,7.7c-0.2,2.8,2.8,34.9,6.8,38.1c4.1,3.2,13.9,8.6,16.5,4.7
			c2.6-3.8,4.8-10.5,2-17.3c-2.8-6.8-6.3-18.6-6.3-24.2c0-1.1,4.3-23.5,4.3-23.5L696.9,774.3z"/>
		<path fill="#182759" d="M696.9,837.3c4.1,3.2,13.9,8.6,16.5,4.7c2.6-3.8,4.8-10.5,2-17.3c-2.4-5.9-5.3-15.5-6.1-21.6
			c-2.5,2-5.6,3.5-8.5,2.1c-6-2.8-7.4-13.7-7.4-13.7s-3,4.9-3.3,7.7C689.9,802.1,692.9,834.1,696.9,837.3z"/>
		<path fill="#F2947E" d="M670.6,422.4l27.5-6.8c0,0-5.1,6.9-23.9,10.8c0,0,16.3-0.4,23.9,2.4c7.6,2.8,8.6,4.7,8.6,4.7
			s-4.5,3.2-6.4,6.6c-1.9,3.4-1.7,6-10.1,8.1c-8.3,2.1-21.8,7.5-21.8,7.5l-2.4,15c0,0-3.6,6.2-9,6.8c-5.3,0.6-78.5,5.1-95.6,4.6
			c-9.5-0.3-19-2.9-25.5-5c-4.8-1.6-7.6-6.7-6.4-11.6c4.7-18.7,16.4-65.7,26.1-106.8c12.5-52.7,23.7-71,33.4-72.7
			c9.7-1.7,16.3,31.1,13.7,45.3c-2.6,14.3-19.4,53.9-23.4,69c-4,15.1-19.7,54.5-19.7,54.5s59.9,8,72.1,8.8c12.3,0.9,22-4.8,22-4.8
			s2.3-34.5,3.4-36.5c1.1-2,14.1-8.8,14.1-8.8L670.6,422.4z"/>
		<path fill="#E8CE74" d="M680.9,371.2c15.7,1.3,64.1,13.9,64.1,13.9c-19.2-8.6-57.7-14.6-63.5-15.4
			C681.3,370.2,681.1,370.7,680.9,371.2z"/>
		<path fill="#77392F" d="M748.3,479.8l14.8-92.4c0,0-5.1,2.1-11.1,2.1L738,482.1C742.5,482.3,745.7,482.1,748.3,479.8z"/>
		<path fill="#617E93" d="M779.1,547.5c0,0-18.8-5.3-46.8,1c18.1,3.9,22.3,23.9,28.2,28.2c2.3,1.7,13.5-1.2,11.7,3.7L708.9,776
			l7.5,1.1c0,0,70.4-187.7,72.3-205.9C790.5,553,779.1,547.5,779.1,547.5z"/>
		<path fill="#9E5144" d="M722.7,153c-17.1-10.8-22.5-35.6-43.6-44.2c-21.1-8.6-35.9,16.3-35.9,16.3s14-7.1,20.2-5.1
			c6.3,2,5.1,6.6,14.5,10c9.4,3.4,12.8,3.1,12.8,3.1l20.5,14.5c0,0-21.9-8.8-35.6-8.8c0,0,32.8,12.3,45.6,20.2c0,0-17.4,1.4-31.1,0
			c-13.7-1.4-19.4-5.1-19.4-5.1s4,8.8,21.1,10.8c17.1,2,39.3,3.7,53,14.5c9,7.1,13.3,19.2,15.4,30c0.1-1.4,0.1-2.8-0.1-4.3
			C758.6,181.3,739.8,163.8,722.7,153z"/>
		<path fill="#FCB1A7" d="M688.7,207.1c0.1,0.3,2.4,12.9,1.7,14.2c-0.7,1.2-3.6,2.8-3.5,2.5c0.1-0.4,2.1-2.3,1.7-5.1
			C688.3,216,688.7,207.1,688.7,207.1z"/>
		<path fill="#864536" d="M656,202.2c0.3-0.1,16.4,0.3,20.2,2.5c0,0-2.8-3.4-4.9-3.3C669.2,201.4,656,202.2,656,202.2z"/>
		<path fill="#864536" d="M694.6,209c0,0,5.1-1.1,13.2,3.8c0,0-3.4-4.1-7.6-5C698,207.2,694.6,209,694.6,209z"/>
		<path fill="#864536" d="M657.3,191.1c0,0,6-4.1,12.1-3.1c6.1,1,8.5,3.6,9.3,5.1c0.9,1.5,1.1,4,1.1,4s-3.3-5.2-9.9-6.8
			C663.5,188.7,662.4,189.8,657.3,191.1z"/>
		<path fill="#864536" d="M711.9,203.3c0,0-1.9-4.6-5.9-5.8c-4-1.2-6.5-0.2-7.6,0.6c-1.1,0.7-2.3,2.4-2.3,2.4s4.1-2.5,8.7-1.6
			C709.2,199.8,709.4,200.9,711.9,203.3z"/>
		
			<ellipse transform="matrix(0.1195 -0.9928 0.9928 0.1195 386.7747 846.8116)" fill="#864536" cx="670.8" cy="205.4" rx="3.3" ry="2.5"/>
		
			<ellipse transform="matrix(0.2234 -0.9747 0.9747 0.2234 337.965 848.2795)" fill="#864536" cx="701.3" cy="212.1" rx="2.7" ry="2.2"/>
		<path fill="#864536" d="M669.8,232c0,0,2.3,0.5,4.3,0.6c2.3,0,4.5-0.4,5.4,0.1c1.8,1,2.3,1.6,2.3,1.6s2.9-1.1,3.8-0.1
			c0.9,1,1.3,1.8,1.3,1.8s-2.4,2.9-6.4,2.3C674.2,237.3,669.8,232,669.8,232z"/>
	</g>
	<g>
		<path fill="#E54C4C" d="M917.1,886.9c0.5-0.6,203.6-7.6,203.6-7.6l232.8,18.3v3.3l-197.9,27.9l-238.4-26V886.9z"/>
		<path fill="#FC6262" d="M917.1,883.6c0.5-0.6,203.6-7.6,203.6-7.6l232.8,21.6l-197.9,27.9l-238.4-26V883.6z"/>
		<polygon fill="#F2DA99" points="917.1,867.6 1159.2,893 1159.2,924.9 917.1,897.3 		"/>
		<polygon fill="#E54C4C" points="1120.7,844.1 1353.5,862.4 1353.5,865.7 1155.6,893.6 917.1,867.6 		"/>
		<polygon fill="#FC6262" points="1120.7,840.8 1353.5,862.4 1155.6,890.2 917.1,864.3 		"/>
		<polygon fill="#CC4040" points="917.1,864.3 917.1,867.6 1155.6,893.6 1155.6,890.2 		"/>
		<polygon fill="#CC4040" points="917.1,899.5 917.1,902.8 1155.6,928.8 1155.6,925.5 		"/>
		<polygon fill="#F4E6C1" points="1346.9,866.6 1159.2,893 1159.2,924.9 1346.9,898.5 		"/>
		<path fill="#F2DA99" d="M1163.3,900.7c7.5-1.2,15.1-2.4,22.6-3.6l22.6-3.5c7.5-1.2,15.1-2.3,22.6-3.4l22.6-3.4l22.7-3.2
			c7.6-1.1,15.1-2.2,22.7-3.2l22.7-3.1c7.6-1,15.1-2,22.7-3c-7.5,1.2-15.1,2.4-22.6,3.6l-22.6,3.5c-7.5,1.2-15.1,2.3-22.6,3.4
			l-22.6,3.4l-22.7,3.2c-7.6,1.1-15.1,2.2-22.7,3.2l-22.7,3.1C1178.4,898.7,1170.8,899.8,1163.3,900.7z"/>
		<polygon fill="#F2DA99" points="1163.3,920 1185.9,916.5 1208.5,913 1253.8,906.3 1299.1,899.8 1321.8,896.6 1344.5,893.6 
			1321.8,897.1 1299.2,900.5 1253.9,907.2 1208.6,913.7 1185.9,916.9 		"/>
		<polygon fill="#F2DA99" points="1159.2,908.5 1181.8,905 1204.5,901.6 1249.8,894.9 1295.1,888.4 1317.7,885.2 1340.4,882.1 
			1317.8,885.6 1295.2,889 1249.9,895.7 1204.6,902.2 1181.9,905.4 		"/>
		<polygon fill="#F2DA99" points="1159.2,910.9 1181.8,907.4 1204.5,903.9 1249.8,897.2 1295.1,890.7 1317.7,887.6 1340.4,884.5 
			1317.8,888 1295.2,891.4 1249.9,898.1 1204.6,904.6 1181.9,907.8 		"/>
		<polygon fill="#F2DA99" points="1157.5,913.3 1180.2,909.8 1202.8,906.4 1248.1,899.7 1293.4,893.2 1316.1,890 1338.7,886.9 
			1316.1,890.4 1293.5,893.8 1248.2,900.5 1202.9,907 1180.2,910.2 		"/>
		<path fill="#F4E6C1" d="M919.2,877.4c3.7,0.5,7.4,1,11,1.5l11,1.6l80.6,3.2l44,6.6l44,6.8l22,3.5l22,3.6l-22-3.1l-22-3.2l-44-6.6
			l-44-6.8l-80.5-3.4L919.2,877.4z"/>
		<path fill="#F4E6C1" d="M919.2,882.5c3.7,0.5,7.4,1,11,1.5l11,1.6l80.6,3.2l44,6.6l44,6.8l22,3.5l22,3.6l-22-3.1l-22-3.2l-44-6.6
			l-44-6.8l-80.5-3.4L919.2,882.5z"/>
		<path fill="#F4E6C1" d="M919.2,887.5c3.7,0.5,7.4,1,11,1.5l11,1.6l80.6,3.2l44,6.6l44,6.8l22,3.5l22,3.6l-22-3.1l-22-3.2l-44-6.6
			l-44-6.8l-80.5-3.4L919.2,887.5z"/>
		<polygon fill="#E54C4C" points="1353.5,865.7 1353.5,897.6 1346.9,898.5 1346.9,866.6 		"/>
	</g>
</g>
<g id="text">
</g>
</svg>
