<?xml version="1.0" encoding="utf-8"?>
<!-- Generator: Adobe Illustrator 22.1.0, SVG Export Plug-In . SVG Version: 6.00 Build 0)  -->
<svg version="1.1" xmlns="http://www.w3.org/2000/svg" xmlns:xlink="http://www.w3.org/1999/xlink" x="0px" y="0px"
	 viewBox="0 0 1400 1200" style="enable-background:new 0 0 1400 1200;" xml:space="preserve">
<style type="text/css">
	.st0{fill:#7CE5E0;}
	.st1{opacity:0.16;fill:#2E2F33;}
	.st2{fill:#FFFFFF;}
	.st3{opacity:0.22;fill:#2E2F33;}
	.st4{fill:#F26200;}
	.st5{fill:#FF8A29;}
	.st6{fill:#2E2F33;}
	.st7{fill:#8B8B8C;}
	.st8{fill:#68696D;}
	.st9{fill:#EBEDED;}
	.st10{fill:#C5D1D1;}
	.st11{fill:#353A3E;}
	.st12{fill:#DBDBDB;}
	.st13{fill:#EDEDED;}
	.st14{opacity:0.38;fill:#FFFFFF;}
</style>
<g id="BACKGROUND">
	<rect class="st0" width="1400" height="1200"/>
</g>
<g id="OBJECT">
	<g>
		<polygon class="st1" points="1189,473.4 1234,480.7 1226.1,421.2 1263.2,422.5 1243.9,364.1 1221.2,331.6 1150.6,313.1 
			1142.5,363.6 1106.3,378.1 1128.7,433.5 		"/>
		<polygon class="st1" points="1093.4,963 1036.2,953.9 999.3,958.7 953.2,1009.8 991.9,1038.4 988.4,1075 1044.4,1080.2 
			1103.9,1047.1 1129.5,1012.6 1076.3,993.4 		"/>
		<polygon class="st1" points="359.2,930.5 314.7,893.4 280.5,878.6 214.8,898.9 233.3,943.3 211.6,972.8 257,1006.1 325.1,1008.1 
			364.7,991.6 328.9,947.9 		"/>
		<polygon class="st1" points="1275,767.7 1292.2,737.1 1234.8,728 1197.6,732.8 1151.4,784.1 1190.3,812.9 1186.7,849.6 
			1243,854.8 1302.7,821.5 1328.4,786.9 		"/>
		<polygon class="st1" points="303.9,589.8 295.3,524.8 335.8,526.2 314.7,462.4 289.9,426.9 212.7,406.7 203.9,461.8 164.3,477.7 
			188.8,538.2 254.7,581.9 		"/>
		<polygon class="st1" points="403.2,190.1 362.7,212.7 337.7,263 336.4,298.3 381.5,286.6 384.1,315.3 427.2,294.8 450.1,274.2 
			457.5,218 417.9,216.6 		"/>
		<polygon class="st1" points="965.7,276.3 1014.3,283.1 1067.6,256.6 1091.3,227.6 1045.7,208.7 1061.9,182.8 1012.3,172.6 
			979.9,175.3 937.7,218 970.3,244.5 		"/>
		
			<rect x="883.3" y="485.5" transform="matrix(0.9824 0.187 -0.187 0.9824 146.374 -182.3796)" class="st2" width="312.9" height="398.2"/>
		
			<rect x="244.3" y="686.8" transform="matrix(0.9812 -0.1931 0.1931 0.9812 -159.1681 89.8874)" class="st2" width="274.3" height="349.1"/>
		
			<rect x="839.6" y="364.6" transform="matrix(0.9939 0.1105 -0.1105 0.9939 68.3736 -106.5988)" class="st3" width="312.9" height="398.2"/>
		
			<rect x="825.4" y="342.2" transform="matrix(0.9939 0.1105 -0.1105 0.9939 65.8175 -105.1644)" class="st2" width="312.9" height="398.2"/>
		<g>
			<path class="st3" d="M1084.9,647.8l-17.2-18.9c-7.4-8.1-11.5-18.7-11.5-29.8V453.7h-19.2v-9c0-10.9-8.2-19.8-18.7-21.1v-4.4
				c0-4.7-3.8-8.6-8.6-8.6h-5.6c-4.7,0-8.6,3.8-8.6,8.6v4.3h-38.2v-14.6c0-19.3-15.7-35-35-35h-43.3V142.1H513.4v231.7h-47.9
				c-19.3,0-35,15.7-35,35v14.6h-31.3v-4.3c0-4.7-3.8-8.6-8.6-8.6H385c-4.7,0-8.6,3.8-8.6,8.6v4.4c-10.5,1.3-18.7,10.2-18.7,21.1
				v26.5c0,11.7,7.9,21.6,18.7,24.5v5.2c0,4.7,3.8,8.6,8.6,8.6h5.6c4.7,0,8.6-3.8,8.6-8.6v-4.3H425c-9.4,8.4-15.3,20.6-15.3,34.1
				v134.1v19.4v21v249.5c0,0.4,0,0.9,0,1.3l0,0c0,0,0,0,0,0c0,0.4,0,0.8,0.1,1.2c0,0.1,0,0.2,0,0.2c0,0.3,0.1,0.7,0.1,1
				c0,0.1,0,0.2,0,0.3c0,0.3,0.1,0.6,0.2,1c0,0.1,0,0.3,0.1,0.4c0.1,0.3,0.1,0.6,0.2,0.9c0,0.1,0.1,0.3,0.1,0.4
				c0.1,0.3,0.2,0.6,0.2,0.9c0,0.1,0.1,0.3,0.1,0.4c0.1,0.3,0.2,0.5,0.3,0.8c0.1,0.2,0.1,0.3,0.2,0.5c0.1,0.3,0.2,0.5,0.3,0.8
				c0.1,0.2,0.1,0.3,0.2,0.5c0.1,0.3,0.2,0.5,0.3,0.7c0.1,0.2,0.1,0.3,0.2,0.5c0.1,0.2,0.2,0.5,0.4,0.7c0.1,0.2,0.2,0.3,0.2,0.5
				c0.1,0.2,0.3,0.5,0.4,0.7c0.1,0.2,0.2,0.3,0.3,0.5c0.1,0.2,0.3,0.4,0.4,0.7c0.1,0.2,0.2,0.3,0.3,0.5c0.1,0.2,0.3,0.4,0.4,0.6
				c0.1,0.2,0.2,0.3,0.3,0.5c0.1,0.2,0.3,0.4,0.4,0.6c0.1,0.2,0.2,0.3,0.4,0.4c0.2,0.2,0.3,0.4,0.5,0.6c0.1,0.1,0.3,0.3,0.4,0.4
				c0.2,0.2,0.3,0.4,0.5,0.5c0.1,0.1,0.3,0.3,0.4,0.4c0.2,0.2,0.3,0.3,0.5,0.5c0.1,0.1,0.3,0.3,0.4,0.4c0.2,0.2,0.3,0.3,0.5,0.5
				c0.2,0.1,0.3,0.3,0.5,0.4c0.2,0.2,0.4,0.3,0.5,0.4c0.2,0.1,0.3,0.3,0.5,0.4c0.2,0.1,0.4,0.3,0.5,0.4c0.2,0.1,0.3,0.2,0.5,0.4
				c0.2,0.1,0.4,0.3,0.6,0.4c0.2,0.1,0.4,0.2,0.5,0.3c0.2,0.1,0.4,0.2,0.6,0.4c0.2,0.1,0.4,0.2,0.6,0.3c0.2,0.1,0.4,0.2,0.6,0.3
				c0.2,0.1,0.4,0.2,0.6,0.3c0.2,0.1,0.4,0.2,0.6,0.3c0.2,0.1,0.4,0.2,0.6,0.3c0.2,0.1,0.4,0.2,0.6,0.3c0.2,0.1,0.4,0.2,0.6,0.2
				c0.2,0.1,0.4,0.2,0.6,0.2c0.2,0.1,0.4,0.1,0.7,0.2c0.2,0.1,0.4,0.1,0.6,0.2c0.2,0.1,0.5,0.1,0.7,0.2c0.2,0.1,0.4,0.1,0.6,0.2
				c0.2,0.1,0.5,0.1,0.7,0.2c0.2,0,0.4,0.1,0.6,0.1c0.2,0,0.5,0.1,0.7,0.1c0.2,0,0.4,0.1,0.6,0.1c0.3,0,0.5,0.1,0.8,0.1
				c0.2,0,0.4,0.1,0.6,0.1c0.3,0,0.6,0,0.9,0.1c0.2,0,0.3,0,0.5,0c0.4,0,0.8,0,1.2,0c0.1,0,0.1,0,0.2,0h513.7c0.1,0,0.1,0,0.2,0
				c0.4,0,0.8,0,1.2,0c0.2,0,0.3,0,0.5,0c0.3,0,0.6,0,0.9-0.1c0.2,0,0.4,0,0.6-0.1c0.3,0,0.5-0.1,0.8-0.1c0.2,0,0.4-0.1,0.6-0.1
				c0.2,0,0.5-0.1,0.7-0.1c0.2,0,0.4-0.1,0.6-0.1c0.2-0.1,0.5-0.1,0.7-0.2c0.2-0.1,0.4-0.1,0.6-0.2c0.2-0.1,0.5-0.1,0.7-0.2
				c0.2-0.1,0.4-0.1,0.6-0.2c0.2-0.1,0.4-0.1,0.7-0.2c0.2-0.1,0.4-0.2,0.6-0.2c0.2-0.1,0.4-0.2,0.6-0.2c0.2-0.1,0.4-0.2,0.6-0.3
				c0.2-0.1,0.4-0.2,0.6-0.3c0.2-0.1,0.4-0.2,0.6-0.3c0.2-0.1,0.4-0.2,0.6-0.3c0.2-0.1,0.4-0.2,0.6-0.3c0.2-0.1,0.4-0.2,0.6-0.3
				c0.2-0.1,0.4-0.2,0.6-0.4c0.2-0.1,0.4-0.2,0.5-0.3c0.2-0.1,0.4-0.3,0.6-0.4c0.2-0.1,0.3-0.2,0.5-0.4c0.2-0.1,0.4-0.3,0.5-0.4
				c0.2-0.1,0.3-0.3,0.5-0.4c0.2-0.1,0.4-0.3,0.5-0.4c0.2-0.1,0.3-0.3,0.5-0.4c0.2-0.2,0.3-0.3,0.5-0.5c0.1-0.1,0.3-0.3,0.4-0.4
				c0.2-0.2,0.3-0.3,0.5-0.5c0.1-0.1,0.3-0.3,0.4-0.4c0.2-0.2,0.3-0.4,0.5-0.5c0.1-0.1,0.3-0.3,0.4-0.4c0.2-0.2,0.3-0.4,0.5-0.6
				c0.1-0.1,0.2-0.3,0.3-0.4c0.2-0.2,0.3-0.4,0.5-0.6c0.1-0.1,0.2-0.3,0.3-0.5c0.1-0.2,0.3-0.4,0.4-0.6c0.1-0.2,0.2-0.3,0.3-0.5
				c0.1-0.2,0.3-0.4,0.4-0.7c0.1-0.2,0.2-0.3,0.3-0.5c0.1-0.2,0.3-0.5,0.4-0.7c0.1-0.2,0.2-0.3,0.2-0.5c0.1-0.2,0.2-0.5,0.4-0.7
				c0.1-0.2,0.1-0.3,0.2-0.5c0.1-0.2,0.2-0.5,0.3-0.7c0.1-0.2,0.1-0.3,0.2-0.5c0.1-0.3,0.2-0.5,0.3-0.8c0.1-0.1,0.1-0.3,0.2-0.5
				c0.1-0.3,0.2-0.5,0.3-0.8c0-0.1,0.1-0.3,0.1-0.4c0.1-0.3,0.2-0.6,0.2-0.9c0-0.1,0.1-0.3,0.1-0.4c0.1-0.3,0.1-0.6,0.2-0.9
				c0-0.1,0-0.3,0.1-0.4c0.1-0.3,0.1-0.6,0.2-1c0-0.1,0-0.2,0-0.3c0-0.3,0.1-0.7,0.1-1c0-0.1,0-0.2,0-0.2c0-0.4,0.1-0.8,0.1-1.2
				c0,0,0,0,0,0l0,0c0-0.4,0-0.9,0-1.3V705.2v-21v-19.4V530.7c0-13.6-5.9-25.7-15.3-34.1h32v4.3c0,4.7,3.8,8.6,8.6,8.6h5.6
				c4.7,0,8.6-3.8,8.6-8.6v-5.2c10.8-2.9,18.7-12.8,18.7-24.5V464h6.7v175.8c0,9.7,7.9,17.6,17.6,17.6h18.2
				C1084.5,657.3,1087.5,652,1084.9,647.8z"/>
			<g>
				<path class="st4" d="M1001.8,431.4h32.1v145.4c0,11,4.1,21.6,11.5,29.8l17.2,18.9c2.6,4.2-0.4,9.6-5.3,9.6h-18.2
					c-9.7,0-17.6-7.9-17.6-17.6V441.7h-24.8L1001.8,431.4z"/>
				<path class="st5" d="M900.1,351.5h-457c-19.3,0-35,15.7-35,35v110.4h527V386.5C935.1,367.2,919.5,351.5,900.1,351.5z"/>
				<g>
					<path class="st6" d="M993.5,401.1H356.6c-11.7,0-21.3,9.5-21.3,21.3v26.5c0,14,11.4,25.4,25.4,25.4h628.7
						c14,0,25.4-11.4,25.4-25.4v-26.5C1014.7,410.7,1005.2,401.1,993.5,401.1z"/>
					<g>
						<path class="st5" d="M368.3,388.3h-5.6c-4.7,0-8.6,3.8-8.6,8.6v81.6c0,4.7,3.8,8.6,8.6,8.6h5.6c4.7,0,8.6-3.8,8.6-8.6v-81.6
							C376.8,392.1,373,388.3,368.3,388.3z"/>
						<path class="st5" d="M987.5,388.3h-5.6c-4.7,0-8.6,3.8-8.6,8.6v81.6c0,4.7,3.8,8.6,8.6,8.6h5.6c4.7,0,8.6-3.8,8.6-8.6v-81.6
							C996,392.1,992.2,388.3,987.5,388.3z"/>
					</g>
				</g>
				<rect x="491.1" y="119.8" class="st2" width="365.7" height="342.5"/>
				<path class="st5" d="M928.8,614.7H415.1c-15.3,0-27.7,12.4-27.7,27.7v289.9c0,15.3,12.4,27.7,27.7,27.7h513.7
					c15.3,0,27.7-12.4,27.7-27.7V642.4C956.5,627.1,944.1,614.7,928.8,614.7z"/>
				<path class="st5" d="M387.4,682.9h569.2V508.3c0-25.3-20.5-45.7-45.7-45.7H433.1c-25.3,0-45.7,20.5-45.7,45.7V682.9z"/>
				<rect x="387.4" y="661.9" class="st4" width="569.2" height="21"/>
				<path class="st4" d="M387.4,933.7c0.7,14.7,12.8,26.4,27.7,26.4h513.7c14.9,0,27-11.7,27.7-26.4H387.4z"/>
				<path class="st6" d="M915.7,723v137.6h-34.5c-13.4,0-25.3,8.7-29.4,21.6l-8.6,27.6c-1.6,5.2-6.5,8.8-12,8.8H512.6
					c-5.5,0-10.3-3.6-12-8.8l-8.6-27.6c-4-12.8-15.9-21.6-29.4-21.6h-34.5V723c0-9.1,7.4-16.5,16.5-16.5h454.5
					C908.3,706.5,915.7,713.9,915.7,723z"/>
				<g>
					<g>
						<g>
							<path class="st2" d="M503.8,813.3h-7.5c-7.9,0-14.3,6.5-14.3,14.3v5.5c0,7.9,6.5,14.3,14.3,14.3h7.5
								c7.9,0,14.3-6.5,14.3-14.3v-5.5C518.2,819.7,511.7,813.3,503.8,813.3z"/>
							<path class="st6" d="M503.4,827.6h-6.6c-1.5,0-2.8,1.3-2.8,2.8v0c0,1.5,1.3,2.8,2.8,2.8h6.6c1.5,0,2.8-1.3,2.8-2.8v0
								C506.2,828.8,504.9,827.6,503.4,827.6z"/>
						</g>
						<g>
							<path class="st2" d="M552.9,813.3h-7.5c-7.9,0-14.3,6.5-14.3,14.3v5.5c0,7.9,6.5,14.3,14.3,14.3h7.5
								c7.9,0,14.3-6.5,14.3-14.3v-5.5C567.3,819.7,560.8,813.3,552.9,813.3z"/>
							<path class="st6" d="M552.5,827.6h-6.6c-1.5,0-2.8,1.3-2.8,2.8v0c0,1.5,1.3,2.8,2.8,2.8h6.6c1.5,0,2.8-1.3,2.8-2.8v0
								C555.3,828.8,554,827.6,552.5,827.6z"/>
						</g>
						<g>
							<path class="st2" d="M602,813.3h-7.5c-7.9,0-14.3,6.5-14.3,14.3v5.5c0,7.9,6.5,14.3,14.3,14.3h7.5c7.9,0,14.3-6.5,14.3-14.3
								v-5.5C616.4,819.7,609.9,813.3,602,813.3z"/>
							<path class="st6" d="M601.6,827.6H595c-1.5,0-2.8,1.3-2.8,2.8v0c0,1.5,1.3,2.8,2.8,2.8h6.6c1.5,0,2.8-1.3,2.8-2.8v0
								C604.4,828.8,603.1,827.6,601.6,827.6z"/>
						</g>
						<g>
							<path class="st2" d="M651.1,813.3h-7.5c-7.9,0-14.3,6.5-14.3,14.3v5.5c0,7.9,6.5,14.3,14.3,14.3h7.5
								c7.9,0,14.3-6.5,14.3-14.3v-5.5C665.5,819.7,659,813.3,651.1,813.3z"/>
							<path class="st6" d="M650.7,827.6h-6.6c-1.5,0-2.8,1.3-2.8,2.8v0c0,1.5,1.3,2.8,2.8,2.8h6.6c1.5,0,2.8-1.3,2.8-2.8v0
								C653.5,828.8,652.2,827.6,650.7,827.6z"/>
						</g>
						<g>
							<path class="st2" d="M700.2,813.3h-7.5c-7.9,0-14.3,6.5-14.3,14.3v5.5c0,7.9,6.5,14.3,14.3,14.3h7.5
								c7.9,0,14.3-6.5,14.3-14.3v-5.5C714.6,819.7,708.1,813.3,700.2,813.3z"/>
							<path class="st6" d="M699.8,827.6h-6.6c-1.5,0-2.8,1.3-2.8,2.8v0c0,1.5,1.3,2.8,2.8,2.8h6.6c1.5,0,2.8-1.3,2.8-2.8v0
								C702.6,828.8,701.3,827.6,699.8,827.6z"/>
						</g>
						<g>
							<path class="st2" d="M749.3,813.3h-7.5c-7.9,0-14.3,6.5-14.3,14.3v5.5c0,7.9,6.5,14.3,14.3,14.3h7.5
								c7.9,0,14.3-6.5,14.3-14.3v-5.5C763.7,819.7,757.2,813.3,749.3,813.3z"/>
							<path class="st6" d="M748.9,827.6h-6.6c-1.5,0-2.8,1.3-2.8,2.8v0c0,1.5,1.3,2.8,2.8,2.8h6.6c1.5,0,2.8-1.3,2.8-2.8v0
								C751.7,828.8,750.4,827.6,748.9,827.6z"/>
						</g>
						<g>
							<path class="st2" d="M798.4,813.3H791c-7.9,0-14.3,6.5-14.3,14.3v5.5c0,7.9,6.5,14.3,14.3,14.3h7.5c7.9,0,14.3-6.5,14.3-14.3
								v-5.5C812.8,819.7,806.3,813.3,798.4,813.3z"/>
							<path class="st6" d="M798,827.6h-6.6c-1.5,0-2.8,1.3-2.8,2.8v0c0,1.5,1.3,2.8,2.8,2.8h6.6c1.5,0,2.8-1.3,2.8-2.8v0
								C800.8,828.8,799.5,827.6,798,827.6z"/>
						</g>
						<g>
							<path class="st2" d="M847.5,813.3h-7.5c-7.9,0-14.3,6.5-14.3,14.3v5.5c0,7.9,6.5,14.3,14.3,14.3h7.5
								c7.9,0,14.3-6.5,14.3-14.3v-5.5C861.9,819.7,855.4,813.3,847.5,813.3z"/>
							<path class="st6" d="M847.1,827.6h-6.6c-1.5,0-2.8,1.3-2.8,2.8v0c0,1.5,1.3,2.8,2.8,2.8h6.6c1.5,0,2.8-1.3,2.8-2.8v0
								C849.9,828.8,848.6,827.6,847.1,827.6z"/>
						</g>
					</g>
					<g>
						<g>
							<path class="st2" d="M816.3,860.3H527.6c-7.9,0-14.3,6.5-14.3,14.3v5.5c0,7.9,6.5,14.3,14.3,14.3h288.8
								c7.9,0,14.3-6.5,14.3-14.3v-5.5C830.7,866.7,824.2,860.3,816.3,860.3z"/>
							<path class="st6" d="M678.5,874.6h-13.1c-1.5,0-2.8,1.3-2.8,2.8l0,0c0,1.5,1.3,2.8,2.8,2.8h13.1c1.5,0,2.8-1.3,2.8-2.8l0,0
								C681.3,875.8,680.1,874.6,678.5,874.6z"/>
						</g>
					</g>
					<g>
						<g>
							<path class="st2" d="M503.8,728.3h-7.5c-7.9,0-14.3,6.5-14.3,14.3v5.5c0,7.9,6.5,14.3,14.3,14.3h7.5
								c7.9,0,14.3-6.5,14.3-14.3v-5.5C518.2,734.7,511.7,728.3,503.8,728.3z"/>
							<path class="st6" d="M503.4,742.6h-6.6c-1.5,0-2.8,1.3-2.8,2.8l0,0c0,1.5,1.3,2.8,2.8,2.8h6.6c1.5,0,2.8-1.3,2.8-2.8l0,0
								C506.2,743.8,504.9,742.6,503.4,742.6z"/>
						</g>
						<g>
							<path class="st2" d="M552.9,728.3h-7.5c-7.9,0-14.3,6.5-14.3,14.3v5.5c0,7.9,6.5,14.3,14.3,14.3h7.5
								c7.9,0,14.3-6.5,14.3-14.3v-5.5C567.3,734.7,560.8,728.3,552.9,728.3z"/>
							<path class="st6" d="M552.5,742.6h-6.6c-1.5,0-2.8,1.3-2.8,2.8l0,0c0,1.5,1.3,2.8,2.8,2.8h6.6c1.5,0,2.8-1.3,2.8-2.8l0,0
								C555.3,743.8,554,742.6,552.5,742.6z"/>
						</g>
						<g>
							<path class="st2" d="M602,728.3h-7.5c-7.9,0-14.3,6.5-14.3,14.3v5.5c0,7.9,6.5,14.3,14.3,14.3h7.5c7.9,0,14.3-6.5,14.3-14.3
								v-5.5C616.4,734.7,609.9,728.3,602,728.3z"/>
							<path class="st6" d="M601.6,742.6H595c-1.5,0-2.8,1.3-2.8,2.8l0,0c0,1.5,1.3,2.8,2.8,2.8h6.6c1.5,0,2.8-1.3,2.8-2.8l0,0
								C604.4,743.8,603.1,742.6,601.6,742.6z"/>
						</g>
						<g>
							<path class="st2" d="M651.1,728.3h-7.5c-7.9,0-14.3,6.5-14.3,14.3v5.5c0,7.9,6.5,14.3,14.3,14.3h7.5
								c7.9,0,14.3-6.5,14.3-14.3v-5.5C665.5,734.7,659,728.3,651.1,728.3z"/>
							<path class="st6" d="M650.7,742.6h-6.6c-1.5,0-2.8,1.3-2.8,2.8l0,0c0,1.5,1.3,2.8,2.8,2.8h6.6c1.5,0,2.8-1.3,2.8-2.8l0,0
								C653.5,743.8,652.2,742.6,650.7,742.6z"/>
						</g>
						<g>
							<path class="st2" d="M700.2,728.3h-7.5c-7.9,0-14.3,6.5-14.3,14.3v5.5c0,7.9,6.5,14.3,14.3,14.3h7.5
								c7.9,0,14.3-6.5,14.3-14.3v-5.5C714.6,734.7,708.1,728.3,700.2,728.3z"/>
							<path class="st6" d="M699.8,742.6h-6.6c-1.5,0-2.8,1.3-2.8,2.8l0,0c0,1.5,1.3,2.8,2.8,2.8h6.6c1.5,0,2.8-1.3,2.8-2.8l0,0
								C702.6,743.8,701.3,742.6,699.8,742.6z"/>
						</g>
						<g>
							<path class="st2" d="M749.3,728.3h-7.5c-7.9,0-14.3,6.5-14.3,14.3v5.5c0,7.9,6.5,14.3,14.3,14.3h7.5
								c7.9,0,14.3-6.5,14.3-14.3v-5.5C763.7,734.7,757.2,728.3,749.3,728.3z"/>
							<path class="st6" d="M748.9,742.6h-6.6c-1.5,0-2.8,1.3-2.8,2.8l0,0c0,1.5,1.3,2.8,2.8,2.8h6.6c1.5,0,2.8-1.3,2.8-2.8l0,0
								C751.7,743.8,750.4,742.6,748.9,742.6z"/>
						</g>
						<g>
							<path class="st2" d="M798.4,728.3H791c-7.9,0-14.3,6.5-14.3,14.3v5.5c0,7.9,6.5,14.3,14.3,14.3h7.5c7.9,0,14.3-6.5,14.3-14.3
								v-5.5C812.8,734.7,806.3,728.3,798.4,728.3z"/>
							<path class="st6" d="M798,742.6h-6.6c-1.5,0-2.8,1.3-2.8,2.8l0,0c0,1.5,1.3,2.8,2.8,2.8h6.6c1.5,0,2.8-1.3,2.8-2.8l0,0
								C800.8,743.8,799.5,742.6,798,742.6z"/>
						</g>
						<g>
							<path class="st2" d="M847.5,728.3h-7.5c-7.9,0-14.3,6.5-14.3,14.3v5.5c0,7.9,6.5,14.3,14.3,14.3h7.5
								c7.9,0,14.3-6.5,14.3-14.3v-5.5C861.9,734.7,855.4,728.3,847.5,728.3z"/>
							<path class="st6" d="M847.1,742.6h-6.6c-1.5,0-2.8,1.3-2.8,2.8l0,0c0,1.5,1.3,2.8,2.8,2.8h6.6c1.5,0,2.8-1.3,2.8-2.8l0,0
								C849.9,743.8,848.6,742.6,847.1,742.6z"/>
						</g>
					</g>
					<g>
						<g>
							<path class="st2" d="M479.5,772.6H472c-7.9,0-14.3,6.5-14.3,14.3v5.5c0,7.9,6.5,14.3,14.3,14.3h7.5c7.9,0,14.3-6.5,14.3-14.3
								v-5.5C493.8,779,487.4,772.6,479.5,772.6z"/>
							<path class="st6" d="M479.1,786.9h-6.6c-1.5,0-2.8,1.3-2.8,2.8l0,0c0,1.5,1.3,2.8,2.8,2.8h6.6c1.5,0,2.8-1.3,2.8-2.8l0,0
								C481.9,788.1,480.6,786.9,479.1,786.9z"/>
						</g>
						<g>
							<path class="st2" d="M528.6,772.6h-7.5c-7.9,0-14.3,6.5-14.3,14.3v5.5c0,7.9,6.5,14.3,14.3,14.3h7.5
								c7.9,0,14.3-6.5,14.3-14.3v-5.5C543,779,536.5,772.6,528.6,772.6z"/>
							<path class="st6" d="M528.2,786.9h-6.6c-1.5,0-2.8,1.3-2.8,2.8l0,0c0,1.5,1.3,2.8,2.8,2.8h6.6c1.5,0,2.8-1.3,2.8-2.8l0,0
								C531,788.1,529.7,786.9,528.2,786.9z"/>
						</g>
						<g>
							<path class="st2" d="M577.7,772.6h-7.5c-7.9,0-14.3,6.5-14.3,14.3v5.5c0,7.9,6.5,14.3,14.3,14.3h7.5
								c7.9,0,14.3-6.5,14.3-14.3v-5.5C592.1,779,585.6,772.6,577.7,772.6z"/>
							<path class="st6" d="M577.3,786.9h-6.6c-1.5,0-2.8,1.3-2.8,2.8l0,0c0,1.5,1.3,2.8,2.8,2.8h6.6c1.5,0,2.8-1.3,2.8-2.8l0,0
								C580.1,788.1,578.8,786.9,577.3,786.9z"/>
						</g>
						<g>
							<path class="st2" d="M626.8,772.6h-7.5c-7.9,0-14.3,6.5-14.3,14.3v5.5c0,7.9,6.5,14.3,14.3,14.3h7.5
								c7.9,0,14.3-6.5,14.3-14.3v-5.5C641.2,779,634.7,772.6,626.8,772.6z"/>
							<path class="st6" d="M626.4,786.9h-6.6c-1.5,0-2.8,1.3-2.8,2.8l0,0c0,1.5,1.3,2.8,2.8,2.8h6.6c1.5,0,2.8-1.3,2.8-2.8l0,0
								C629.2,788.1,627.9,786.9,626.4,786.9z"/>
						</g>
						<g>
							<path class="st2" d="M675.9,772.6h-7.5c-7.9,0-14.3,6.5-14.3,14.3v5.5c0,7.9,6.5,14.3,14.3,14.3h7.5
								c7.9,0,14.3-6.5,14.3-14.3v-5.5C690.3,779,683.8,772.6,675.9,772.6z"/>
							<path class="st6" d="M675.5,786.9h-6.6c-1.5,0-2.8,1.3-2.8,2.8l0,0c0,1.5,1.3,2.8,2.8,2.8h6.6c1.5,0,2.8-1.3,2.8-2.8l0,0
								C678.3,788.1,677,786.9,675.5,786.9z"/>
						</g>
						<g>
							<path class="st2" d="M725,772.6h-7.5c-7.9,0-14.3,6.5-14.3,14.3v5.5c0,7.9,6.5,14.3,14.3,14.3h7.5c7.9,0,14.3-6.5,14.3-14.3
								v-5.5C739.4,779,732.9,772.6,725,772.6z"/>
							<path class="st6" d="M724.6,786.9H718c-1.5,0-2.8,1.3-2.8,2.8l0,0c0,1.5,1.3,2.8,2.8,2.8h6.6c1.5,0,2.8-1.3,2.8-2.8l0,0
								C727.4,788.1,726.1,786.9,724.6,786.9z"/>
						</g>
						<g>
							<path class="st2" d="M774.1,772.6h-7.5c-7.9,0-14.3,6.5-14.3,14.3v5.5c0,7.9,6.5,14.3,14.3,14.3h7.5
								c7.9,0,14.3-6.5,14.3-14.3v-5.5C788.5,779,782,772.6,774.1,772.6z"/>
							<path class="st6" d="M773.7,786.9h-6.6c-1.5,0-2.8,1.3-2.8,2.8l0,0c0,1.5,1.3,2.8,2.8,2.8h6.6c1.5,0,2.8-1.3,2.8-2.8l0,0
								C776.5,788.1,775.2,786.9,773.7,786.9z"/>
						</g>
						<g>
							<path class="st2" d="M823.2,772.6h-7.5c-7.9,0-14.3,6.5-14.3,14.3v5.5c0,7.9,6.5,14.3,14.3,14.3h7.5
								c7.9,0,14.3-6.5,14.3-14.3v-5.5C837.6,779,831.1,772.6,823.2,772.6z"/>
							<path class="st6" d="M822.8,786.9h-6.6c-1.5,0-2.8,1.3-2.8,2.8l0,0c0,1.5,1.3,2.8,2.8,2.8h6.6c1.5,0,2.8-1.3,2.8-2.8l0,0
								C825.6,788.1,824.3,786.9,822.8,786.9z"/>
						</g>
						<g>
							<path class="st2" d="M871.9,772.6h-7.5c-7.9,0-14.3,6.5-14.3,14.3v5.5c0,7.9,6.5,14.3,14.3,14.3h7.5
								c7.9,0,14.3-6.5,14.3-14.3v-5.5C886.2,779,879.7,772.6,871.9,772.6z"/>
							<path class="st6" d="M871.4,786.9h-6.6c-1.5,0-2.8,1.3-2.8,2.8l0,0c0,1.5,1.3,2.8,2.8,2.8h6.6c1.5,0,2.8-1.3,2.8-2.8l0,0
								C874.2,788.1,873,786.9,871.4,786.9z"/>
						</g>
					</g>
				</g>
				<path class="st6" d="M671.9,629.8c101,0,185.4-52.5,205.7-122.6h-61.4c-18.9,0-34.8-14.1-37-32.9l-1.4-11.7H566l-1.4,11.7
					c-2.2,18.7-18.1,32.9-37,32.9h-61.4C486.5,577.3,570.9,629.8,671.9,629.8z"/>
				<path class="st7" d="M840.5,526.8l-118.2-51.2h-92.1l-122.1,53c-2,0.9-3.2,2.5-2.7,3.8c0.5,1.2,2.5,1.6,4.5,0.8l108.9-43
					L522,548.1c-1.9,1.1-2.8,2.9-2.1,4.1v0c0.7,1.2,2.7,1.2,4.6,0.2l97-53.9l-85.3,67.7c-1.7,1.3-2.4,3.3-1.6,4.3v0
					c0.8,1.1,2.8,0.9,4.6-0.4l88.7-65.8l-71.2,73.5c-1.5,1.6-2,3.5-1,4.5c0.9,0.9,2.9,0.5,4.5-1l75.6-73.2l-59,79.6
					c-1.3,1.7-1.5,3.8-0.4,4.6c1.1,0.8,3,0.1,4.3-1.6l59.9-75.4l-44.9,80.9c-1.1,1.9-1,3.9,0.2,4.6c1.2,0.7,3-0.3,4.1-2.1l48-80.1
					l-33.2,84.1c-0.8,2-0.4,4,0.8,4.5c1.2,0.5,2.9-0.7,3.8-2.7l38.2-88.2l-23.3,93c-0.5,2.1,0.1,4,1.4,4.4c1.3,0.3,2.8-1,3.4-3.1
					l25.5-89.2l-10.6,92.1c-0.2,2.2,0.6,4,1.9,4.2h0c1.3,0.2,2.6-1.4,2.9-3.5l13.9-93.6l1.6,94.2c0,2.2,1.1,3.9,2.5,3.9
					c1.3,0,2.4-1.7,2.5-3.9l1.5-92.1l13.4,90c0.3,2.1,1.6,3.7,2.9,3.5c1.3-0.2,2.2-2,1.9-4.2l-10.4-90.2l25.3,88.5
					c0.6,2.1,2.1,3.5,3.4,3.1l0,0c1.3-0.3,1.9-2.3,1.4-4.4L695,515.4l39.3,90.5c0.9,2,2.5,3.2,3.8,2.7h0c1.2-0.5,1.6-2.5,0.8-4.5
					l-35.2-89.2l50,83.4c1.1,1.9,2.9,2.8,4.1,2.1c1.2-0.7,1.2-2.7,0.2-4.6l-45.1-81.2l61.5,77.4c1.3,1.7,3.3,2.4,4.3,1.6
					c1.1-0.8,0.9-2.8-0.4-4.6l-59.2-79.8l74.1,71.7c1.6,1.5,3.5,2,4.5,1c0.9-0.9,0.5-2.9-1-4.5l-71.7-74.1l86.4,64.1
					c1.7,1.3,3.8,1.5,4.6,0.4c0.8-1.1,0.1-3-1.6-4.3l-81.7-64.8l93.4,51.9c1.9,1.1,3.9,1,4.6-0.2c0.7-1.2-0.3-3-2.1-4.1l-93.6-56.1
					l103.9,41.1c2,0.8,4,0.4,4.5-0.8v0C843.6,529.3,842.5,527.7,840.5,526.8z"/>
				<path class="st7" d="M473.9,462.5v-47.1c0-1.5-1.2-2.7-2.7-2.7h-7.8c-1.5,0-2.7,1.2-2.7,2.7v47.1H473.9z"/>
				<path class="st7" d="M876.6,462.5v-47.1c0-1.5,1.2-2.7,2.7-2.7h7.8c1.5,0,2.7,1.2,2.7,2.7v47.1H876.6z"/>
				<path class="st7" d="M887.2,420.6H465.7c-1.3,0-2.3,1-2.3,2.3v3.8c0,1.3,1,2.3,2.3,2.3h421.5c1.3,0,2.3-1,2.3-2.3v-3.8
					C889.5,421.6,888.5,420.6,887.2,420.6z"/>
				<path class="st8" d="M584.5,414.4h-46.3c-1.9,0-3.4,1.5-3.4,3.4v15.8c0,1.9,1.5,3.4,3.4,3.4h46.3c1.9,0,3.4-1.5,3.4-3.4v-15.8
					C587.9,416,586.4,414.4,584.5,414.4z"/>
				<path class="st8" d="M812.7,414.4h-46.3c-1.9,0-3.4,1.5-3.4,3.4v15.8c0,1.9,1.5,3.4,3.4,3.4h46.3c1.9,0,3.4-1.5,3.4-3.4v-15.8
					C816.2,416,814.6,414.4,812.7,414.4z"/>
				<g>
					<rect x="577.5" y="303.3" class="st6" width="208.7" height="6.8"/>
					<rect x="577.5" y="336" class="st6" width="208.7" height="6.8"/>
					<rect x="577.5" y="368.7" class="st6" width="208.7" height="6.8"/>
					<rect x="577.5" y="176.4" class="st6" width="104.4" height="6.8"/>
					<rect x="577.5" y="209.2" class="st6" width="208.7" height="6.8"/>
					<rect x="577.5" y="241.9" class="st6" width="208.7" height="6.8"/>
					<rect x="577.5" y="275.6" class="st6" width="165.1" height="6.8"/>
				</g>
				<path class="st7" d="M709.9,440.8V415c0-5.4-3.5-9.8-7.8-9.8h-10.7v35.6h0v11c0,8.1-6.6,14.8-14.8,14.8h0
					c-8.1,0-14.8-6.6-14.8-14.8v-11v-35.6h-10.7c-4.3,0-7.8,4.4-7.8,9.8v25.8h-37.7c7.3,31.9,35.8,55.8,70,55.8
					c34.1,0,62.7-23.8,70-55.8H709.9z"/>
			</g>
		</g>
		<g>
			<polygon class="st2" points="1223.4,363.9 1205.7,421 1122,363.4 1200.8,331.4 			"/>
			<polygon class="st9" points="1122,363.4 1108.2,433.3 1205.7,421 			"/>
			<polygon class="st10" points="1205.7,421 1168.6,473.2 1108.2,433.3 			"/>
			<polygon class="st9" points="1200.8,331.4 1130.1,312.9 1122,363.4 			"/>
			<polygon class="st2" points="1122,363.4 1085.8,377.9 1108.2,433.3 			"/>
			<polygon class="st9" points="1205.7,421 1242.8,422.3 1223.4,363.9 			"/>
			<polygon class="st2" points="1168.6,473.2 1213.6,480.5 1205.7,421 			"/>
		</g>
		<g>
			<polygon class="st2" points="1015.8,953.7 1055.9,993.2 971.5,1038.3 978.8,958.5 			"/>
			<polygon class="st9" points="971.5,1038.3 1024,1080 1055.9,993.2 			"/>
			<polygon class="st10" points="1055.9,993.2 1083.5,1046.9 1024,1080 			"/>
			<polygon class="st9" points="978.8,958.5 932.8,1009.6 971.5,1038.3 			"/>
			<polygon class="st2" points="971.5,1038.3 968,1074.8 1024,1080 			"/>
			<polygon class="st9" points="1055.9,993.2 1073,962.8 1015.8,953.7 			"/>
			<polygon class="st2" points="1083.5,1046.9 1109.1,1012.4 1055.9,993.2 			"/>
		</g>
		<g>
			<polygon class="st2" points="294.3,893.2 308.4,947.7 212.9,943.1 260,878.4 			"/>
			<polygon class="st9" points="212.9,943.1 236.5,1005.9 308.4,947.7 			"/>
			<polygon class="st10" points="308.4,947.7 304.6,1007.9 236.5,1005.9 			"/>
			<polygon class="st9" points="260,878.4 194.3,898.7 212.9,943.1 			"/>
			<polygon class="st2" points="212.9,943.1 191.1,972.7 236.5,1005.9 			"/>
			<polygon class="st9" points="308.4,947.7 338.7,930.3 294.3,893.2 			"/>
			<polygon class="st2" points="304.6,1007.9 344.3,991.4 308.4,947.7 			"/>
		</g>
		<g>
			<polygon class="st2" points="1214.3,727.8 1254.5,767.5 1169.8,812.7 1177.2,732.7 			"/>
			<polygon class="st9" points="1169.8,812.7 1222.5,854.6 1254.5,767.5 			"/>
			<polygon class="st10" points="1254.5,767.5 1282.3,821.3 1222.5,854.6 			"/>
			<polygon class="st9" points="1177.2,732.7 1131,783.9 1169.8,812.7 			"/>
			<polygon class="st2" points="1169.8,812.7 1166.3,849.4 1222.5,854.6 			"/>
			<polygon class="st9" points="1254.5,767.5 1271.8,736.9 1214.3,727.8 			"/>
			<polygon class="st2" points="1282.3,821.3 1308,786.7 1254.5,767.5 			"/>
		</g>
		<g>
			<polygon class="st2" points="294.2,462.2 274.9,524.6 183.4,461.6 269.5,426.7 			"/>
			<polygon class="st9" points="183.4,461.6 168.3,538 274.9,524.6 			"/>
			<polygon class="st10" points="274.9,524.6 234.3,581.7 168.3,538 			"/>
			<polygon class="st9" points="269.5,426.7 192.3,406.5 183.4,461.6 			"/>
			<polygon class="st2" points="183.4,461.6 143.9,477.5 168.3,538 			"/>
			<polygon class="st9" points="274.9,524.6 315.4,526 294.2,462.2 			"/>
			<polygon class="st2" points="234.3,581.7 283.5,589.7 274.9,524.6 			"/>
		</g>
		<g>
			<polygon class="st2" points="406.8,294.6 361.1,286.4 397.4,216.4 429.6,274 			"/>
			<polygon class="st9" points="397.4,216.4 342.3,212.5 361.1,286.4 			"/>
			<polygon class="st10" points="361.1,286.4 317.3,262.8 342.3,212.5 			"/>
			<polygon class="st9" points="429.6,274 437.1,217.8 397.4,216.4 			"/>
			<polygon class="st2" points="397.4,216.4 382.8,189.9 342.3,212.5 			"/>
			<polygon class="st9" points="361.1,286.4 363.6,315.1 406.8,294.6 			"/>
			<polygon class="st2" points="317.3,262.8 315.9,298.1 361.1,286.4 			"/>
		</g>
		<g>
			<polygon class="st2" points="991.9,172.4 1025.2,208.5 949.8,244.3 959.4,175.1 			"/>
			<polygon class="st9" points="949.8,244.3 993.9,282.9 1025.2,208.5 			"/>
			<polygon class="st10" points="1025.2,208.5 1047.2,256.4 993.9,282.9 			"/>
			<polygon class="st9" points="959.4,175.1 917.2,217.8 949.8,244.3 			"/>
			<polygon class="st2" points="949.8,244.3 945.3,276.1 993.9,282.9 			"/>
			<polygon class="st9" points="1025.2,208.5 1041.4,182.6 991.9,172.4 			"/>
			<polygon class="st2" points="1047.2,256.4 1070.9,227.4 1025.2,208.5 			"/>
		</g>
		<g id="XMLID_257_">
			
				<rect id="XMLID_270_" x="1014.9" y="657" transform="matrix(0.7071 -0.7071 0.7071 0.7071 -139.4347 988.2147)" class="st5" width="216.5" height="10.9"/>
			
				<rect id="XMLID_269_" x="1032" y="673.8" transform="matrix(0.7071 -0.7071 0.7071 0.7071 -146.5175 1005.3141)" class="st4" width="216.5" height="11.4"/>
			
				<rect id="XMLID_268_" x="1023.4" y="664.4" transform="matrix(0.7071 -0.7071 0.7071 0.7071 -142.9433 996.6852)" class="st5" width="216.5" height="13"/>
			
				<rect id="XMLID_267_" x="1197.1" y="579.1" transform="matrix(0.7071 0.7071 -0.7071 0.7071 771.6448 -686.6871)" class="st2" width="35.3" height="18.1"/>
			<path id="XMLID_266_" class="st6" d="M1242.3,576.2l-15.7-15.7c-2.6-2.6-6.7-2.6-9.3,0l-8.7,8.7l25,25l8.7-8.7
				C1244.9,582.9,1244.9,578.8,1242.3,576.2z"/>
			<path id="XMLID_265_" class="st11" d="M1024.1,778.7L1024.1,778.7c0.3,0.3,0.8,0.3,1.2,0.2l18-8l-11.4-11.4l-8,18
				C1023.8,778,1023.8,778.4,1024.1,778.7z"/>
			<polygon id="XMLID_263_" class="st12" points="1059.7,752 1038.9,766.5 1043.3,770.9 1067.7,760.1 			"/>
			<polygon class="st13" points="1059.7,752 1050.5,742.8 1042.8,735.1 1031.9,759.6 1036.3,763.9 1038.9,766.5 			"/>
		</g>
		<path class="st3" d="M388.1,668.6c-1.3-2.3-24.1-2.7-48.2-2.1c-3.6-11.1-9.3-29.1-10.2-34.7L316.6,615c0,0-59.7,15.2-91.7,72.4
			c0,0-5.5,13.8-19.2,24.7c-0.5,0.4-1.1,0.8-1.6,1.2c-0.5,0.4-1.1,0.9-1.6,1.3c-13.8,10.7-28.5,12.7-28.5,12.7
			c-63.2,17.3-92.3,71.6-92.3,71.6l13.1,16.7c5,2.1,19.7,11.1,29.7,17.3c-6.7,24.3-12.3,48.3-10.3,50.2c4,3.8,22.6-0.1,22.7-17
			c0-5.6,0-14.9,0.8-25.5c28.6,11.1,56.4-13.8,56.4-13.8c32-25.6,26.1-59.1,17.7-78.4c-2.3-5.2-3.1-9.3-3.1-12.6l6.6-5.6l9.6-6.9
			c3.2,0.8,6.9,2.6,11.3,6c16.7,12.9,47.8,26.6,80.4,1.7c0,0,29.3-19.9,27.2-49.2c9.4,1.7,17.4,3.7,22.4,4.9
			C382.6,690.5,390.8,673.4,388.1,668.6z M279.2,647.3c-0.5,0.3-1,0.6-1.4,0.9C278.3,647.9,278.8,647.6,279.2,647.3z M270.3,653.6
			c0.6-0.4,1.2-0.9,1.8-1.4C271.4,652.7,270.8,653.2,270.3,653.6c-0.6,0.4-1.1,0.9-1.7,1.3C269.1,654.5,269.7,654.1,270.3,653.6z
			 M274.8,650.2c-0.6,0.4-1.1,0.8-1.6,1.2C273.7,651,274.3,650.6,274.8,650.2z M253.1,669.4c2.1-2.3,4.5-4.6,7.1-7
			c0,0,0.2-0.2,0.6-0.6c-0.4,0.4-0.6,0.6-0.6,0.6C257.6,664.8,255.3,667.1,253.1,669.4c-4.3,4.5-7.6,8.8-10.2,12.7
			c-1.4,2.2-2.6,4.3-3.5,6.3c0,0,0,0,0,0c1-2,2.1-4.1,3.5-6.3C245.5,678.1,248.9,673.9,253.1,669.4z M267.8,655.6
			c-3.3,2.7-5.8,5-6.9,6.1C262,660.6,264.5,658.3,267.8,655.6z M139.8,828.5c2,0.9,4.1,1.5,6.3,1.9
			C143.9,830,141.8,829.4,139.8,828.5z M204.6,763.1c0.2,0.7,0.3,1.3,0.5,1.9C204.9,764.4,204.8,763.8,204.6,763.1z M205.8,769.3
			c0.1,0.5,0.1,1,0.2,1.4C206,770.3,205.9,769.8,205.8,769.3z M198.4,749.9c0.5,0.6,0.9,1.3,1.4,1.9c0.4,0.7,0.8,1.3,1.2,2
			c-0.4-0.7-0.8-1.4-1.2-2C199.3,751.2,198.8,750.5,198.4,749.9c-0.8-1.1-1.8-2.1-2.8-3.1l0,0C196.6,747.8,197.5,748.8,198.4,749.9z
			 M275.5,731.3C275.5,731.3,275.5,731.3,275.5,731.3C275.5,731.3,275.5,731.3,275.5,731.3z"/>
		<g>
			<path class="st6" d="M85.8,794.1c0,0,173.7-118.8,186.6-122.9c9.3-2.9,102.9-6.3,105.6-1.6c2.7,4.8-5.5,21.9-22,17.9
				c-16.5-4-64.1-16.5-93.4,2.3L93.1,811.4L85.8,794.1z"/>
			<path class="st6" d="M295,630.3c0,0-157,140.1-164.1,151.6c-5.1,8.3-30.8,98.4-26.9,102.1c4,3.8,22.6-0.1,22.7-17
				s-0.7-66.2,24.6-90.1l158.7-135.3L295,630.3z"/>
			<path class="st6" d="M214.8,688.4c0,0-5.5,13.8-19.2,24.7c-0.5,0.4-1.1,0.8-1.6,1.2c-0.5,0.4-1.1,0.9-1.6,1.3
				c-13.8,10.7-28.5,12.7-28.5,12.7c-63.2,17.3-92.3,71.6-92.3,71.6l13.1,16.7c7.8,3.4,39.4,23.3,39.4,23.3
				c29.8,14.6,59.9-12.3,59.9-12.3c32-25.6,26.1-59.1,17.7-78.4c-6.3-14.5-1.4-21,1.4-23.4c3-2.2,10.5-5.4,23,4.2
				c16.7,12.9,47.8,26.6,80.4,1.7c0,0,33.3-22.7,26.3-55.2c0,0-11.8-35.4-13.2-43.9l-13.1-16.7C306.5,616.1,246.7,631.3,214.8,688.4
				z M196.1,774.8c-0.6,30.5-24.7,45-24.7,45c-32,24.1-50.7,8.9-69.5-15.3c-16.1-20.7,29.1-48,29.1-48
				C194.7,714.7,196.1,774.8,196.1,774.8z M301.8,717.7c0,0-19.9,20-49.7,13.2c0,0-58-15.8-2.1-67.6c0,0,37.3-37.4,53.6-16.8
				C322.6,670.6,332.9,692.4,301.8,717.7z"/>
			<path class="st14" d="M196.1,774.8c-0.6,30.5-24.7,45-24.7,45c-32,24.1-50.7,8.9-69.5-15.3c-16.1-20.7,29.1-48,29.1-48
				C194.7,714.7,196.1,774.8,196.1,774.8z"/>
			<path class="st14" d="M301.8,717.7c0,0-19.9,20-49.7,13.2c0,0-58-15.8-2.1-67.6c0,0,37.3-37.4,53.6-16.8
				C322.6,670.6,332.9,692.4,301.8,717.7z"/>
		</g>
	</g>
</g>
</svg>
