<?xml version="1.0" encoding="UTF-8" standalone="no"?>
<!-- Created with Inkscape (http://www.inkscape.org/) -->

<svg
   xmlns:dc="http://purl.org/dc/elements/1.1/"
   xmlns:cc="http://creativecommons.org/ns#"
   xmlns:rdf="http://www.w3.org/1999/02/22-rdf-syntax-ns#"
   xmlns:svg="http://www.w3.org/2000/svg"
   xmlns="http://www.w3.org/2000/svg"
   xmlns:sodipodi="http://sodipodi.sourceforge.net/DTD/sodipodi-0.dtd"
   xmlns:inkscape="http://www.inkscape.org/namespaces/inkscape"
   width="210mm"
   height="297mm"
   viewBox="0 0 210 297"
   version="1.1"
   id="svg253"
   inkscape:version="0.92.4 (33fec40, 2019-01-16)"
   sodipodi:docname="city-solid-white.svg">
  <defs
     id="defs247" />
  <sodipodi:namedview
     id="base"
     pagecolor="#ffffff"
     bordercolor="#666666"
     borderopacity="1.0"
     inkscape:pageopacity="0.0"
     inkscape:pageshadow="2"
     inkscape:zoom="0.35"
     inkscape:cx="400"
     inkscape:cy="560"
     inkscape:document-units="mm"
     inkscape:current-layer="layer1"
     showgrid="false"
     inkscape:window-width="2560"
     inkscape:window-height="1384"
     inkscape:window-x="0"
     inkscape:window-y="28"
     inkscape:window-maximized="1" />
  <metadata
     id="metadata250">
    <rdf:RDF>
      <cc:Work
         rdf:about="">
        <dc:format>image/svg+xml</dc:format>
        <dc:type
           rdf:resource="http://purl.org/dc/dcmitype/StillImage" />
        <dc:title></dc:title>
      </cc:Work>
    </rdf:RDF>
  </metadata>
  <g
     inkscape:label="Laag 1"
     inkscape:groupmode="layer"
     id="layer1">
    <path
       id="path255"
       d="M 186.41785,129.63214 H 150.43452 V 85.182142 c 0,-3.508375 -2.84163,-6.35 -6.35,-6.35 h -38.1 c -3.50837,0 -6.349997,2.841625 -6.349997,6.35 V 104.23214 H 82.701193 V 83.065475 c 0,-2.338917 -1.89442,-4.233333 -4.23333,-4.233333 h -4.23334 c -2.33891,0 -4.23333,1.894416 -4.23333,4.233333 V 104.23214 H 53.067863 V 83.065475 c 0,-2.338917 -1.89442,-4.233333 -4.23334,-4.233333 h -4.23333 c -2.33892,0 -4.23333,1.894416 -4.23333,4.233333 v 21.166665 h -10.58334 c -3.50837,0 -6.35,2.84163 -6.35,6.35 v 95.25 c 0,4.67519 3.79148,8.46667 8.46667,8.46667 H 184.30119 c 4.67518,0 8.46666,-3.79148 8.46666,-8.46667 v -69.85 c 0,-3.50837 -2.84427,-6.35 -6.35,-6.35 z M 57.301193,185.72381 c 0,1.75418 -1.42081,3.175 -3.175,3.175 h -10.58333 c -1.75419,0 -3.175,-1.42082 -3.175,-3.175 v -10.58334 c 0,-1.75418 1.42081,-3.175 3.175,-3.175 h 10.58333 c 1.75419,0 3.175,1.42082 3.175,3.175 z m 0,-25.4 c 0,1.75419 -1.42081,3.175 -3.175,3.175 h -10.58333 c -1.75419,0 -3.175,-1.42081 -3.175,-3.175 v -10.58334 c 0,-1.75418 1.42081,-3.175 3.175,-3.175 h 10.58333 c 1.75419,0 3.175,1.42082 3.175,3.175 z m 0,-25.4 c 0,1.75419 -1.42081,3.175 -3.175,3.175 h -10.58333 c -1.75419,0 -3.175,-1.42081 -3.175,-3.175 v -10.58334 c 0,-1.75418 1.42081,-3.175 3.175,-3.175 h 10.58333 c 1.75419,0 3.175,1.42082 3.175,3.175 z m 33.86667,50.8 c 0,1.75418 -1.42082,3.175 -3.175,3.175 h -10.58334 c -1.75419,0 -3.175,-1.42082 -3.175,-3.175 v -10.58334 c 0,-1.75418 1.42081,-3.175 3.175,-3.175 h 10.58334 c 1.75418,0 3.175,1.42082 3.175,3.175 z m 0,-25.4 c 0,1.75419 -1.42082,3.175 -3.175,3.175 h -10.58334 c -1.75419,0 -3.175,-1.42081 -3.175,-3.175 v -10.58334 c 0,-1.75418 1.42081,-3.175 3.175,-3.175 h 10.58334 c 1.75418,0 3.175,1.42082 3.175,3.175 z m 0,-25.4 c 0,1.75419 -1.42082,3.175 -3.175,3.175 h -10.58334 c -1.75419,0 -3.175,-1.42081 -3.175,-3.175 v -10.58334 c 0,-1.75418 1.42081,-3.175 3.175,-3.175 h 10.58334 c 1.75418,0 3.175,1.42082 3.175,3.175 z m 42.333327,25.4 c 0,1.75419 -1.42082,3.175 -3.175,3.175 h -10.58333 c -1.75419,0 -3.175,-1.42081 -3.175,-3.175 v -10.58334 c 0,-1.75418 1.42081,-3.175 3.175,-3.175 h 10.58333 c 1.75418,0 3.175,1.42082 3.175,3.175 z m 0,-25.4 c 0,1.75419 -1.42082,3.175 -3.175,3.175 h -10.58333 c -1.75419,0 -3.175,-1.42081 -3.175,-3.175 v -10.58334 c 0,-1.75418 1.42081,-3.175 3.175,-3.175 h 10.58333 c 1.75418,0 3.175,1.42082 3.175,3.175 z m 0,-25.4 c 0,1.75419 -1.42082,3.175 -3.175,3.175 h -10.58333 c -1.75419,0 -3.175,-1.42081 -3.175,-3.175 V 98.940475 c 0,-1.754187 1.42081,-3.175 3.175,-3.175 h 10.58333 c 1.75418,0 3.175,1.420813 3.175,3.175 z m 42.33333,76.2 c 0,1.75418 -1.42081,3.175 -3.175,3.175 h -10.58333 c -1.75419,0 -3.175,-1.42082 -3.175,-3.175 v -10.58334 c 0,-1.75418 1.42081,-3.175 3.175,-3.175 h 10.58333 c 1.75419,0 3.175,1.42082 3.175,3.175 z m 0,-25.4 c 0,1.75419 -1.42081,3.175 -3.175,3.175 h -10.58333 c -1.75419,0 -3.175,-1.42081 -3.175,-3.175 v -10.58334 c 0,-1.75418 1.42081,-3.175 3.175,-3.175 h 10.58333 c 1.75419,0 3.175,1.42082 3.175,3.175 z"
       inkscape:connector-curvature="0"
       style="fill:#ffffff;stroke-width:0.26458332" />
  </g>
</svg>
