<?xml version="1.0" encoding="UTF-8" standalone="no"?>
<!-- Created with Inkscape (http://www.inkscape.org/) -->

<svg
   xmlns:dc="http://purl.org/dc/elements/1.1/"
   xmlns:cc="http://creativecommons.org/ns#"
   xmlns:rdf="http://www.w3.org/1999/02/22-rdf-syntax-ns#"
   xmlns:svg="http://www.w3.org/2000/svg"
   xmlns="http://www.w3.org/2000/svg"
   xmlns:sodipodi="http://sodipodi.sourceforge.net/DTD/sodipodi-0.dtd"
   xmlns:inkscape="http://www.inkscape.org/namespaces/inkscape"
   width="210mm"
   height="297mm"
   viewBox="0 0 210 297"
   version="1.1"
   id="svg8"
   inkscape:version="0.92.4 (33fec40, 2019-01-16)">
  <defs
     id="defs2" />
  <sodipodi:namedview
     id="base"
     pagecolor="#ffffff"
     bordercolor="#666666"
     borderopacity="1.0"
     inkscape:pageopacity="0.0"
     inkscape:pageshadow="2"
     inkscape:zoom="0.35"
     inkscape:cx="400"
     inkscape:cy="560"
     inkscape:document-units="mm"
     inkscape:current-layer="layer1"
     showgrid="false"
     inkscape:window-width="2560"
     inkscape:window-height="1384"
     inkscape:window-x="0"
     inkscape:window-y="28"
     inkscape:window-maximized="1" />
  <metadata
     id="metadata5">
    <rdf:RDF>
      <cc:Work
         rdf:about="">
        <dc:format>image/svg+xml</dc:format>
        <dc:type
           rdf:resource="http://purl.org/dc/dcmitype/StillImage" />
        <dc:title></dc:title>
      </cc:Work>
    </rdf:RDF>
  </metadata>
  <g
     inkscape:label="Laag 1"
     inkscape:groupmode="layer"
     id="layer1">
    <path
       id="path29"
       d="m 171.34481,102.80514 -12.19729,12.1973 c -1.24354,1.24354 -3.25438,1.24354 -4.49792,0 L 125.28085,85.63369 c -1.24354,-1.24355 -1.24354,-3.254379 0,-4.49792 l 12.1973,-12.197292 c 4.9477,-4.947709 12.99104,-4.947709 17.9652,0 l 15.90146,15.901462 c 4.97417,4.9477 4.97417,12.99104 0,17.9652 z m -56.54146,-11.19187 -69.479582,69.47958 -5.60917,32.14687 c -0.76729,4.33917 3.01625,8.09625 7.35542,7.35542 l 32.14688,-5.63562 69.479582,-69.47958 c 1.24354,-1.24355 1.24354,-3.25438 0,-4.49792 L 119.32773,91.61327 c -1.27,-1.24354 -3.28083,-1.24354 -4.52438,0 z m -42.359792,63.52646 c -1.45521,-1.45521 -1.45521,-3.78354 0,-5.23875 L 113.1894,109.15514 c 1.4552,-1.4552 3.78354,-1.4552 5.23875,0 1.4552,1.45521 1.4552,3.78355 0,5.23875 l -40.745842,40.74584 c -1.45521,1.45521 -3.78354,1.45521 -5.23875,0 z m -9.55146,22.25145 h 12.7 v 9.60438 l -17.06562,2.98979 -8.22854,-8.22854 2.98979,-17.06562 h 9.60437 z"
       inkscape:connector-curvature="0"
       style="fill:#ffffff;stroke-width:0.26458332" />
  </g>
</svg>
