<?xml version="1.0" encoding="UTF-8" standalone="no"?>
<!-- Created with Inkscape (http://www.inkscape.org/) -->

<svg
   xmlns:dc="http://purl.org/dc/elements/1.1/"
   xmlns:cc="http://creativecommons.org/ns#"
   xmlns:rdf="http://www.w3.org/1999/02/22-rdf-syntax-ns#"
   xmlns:svg="http://www.w3.org/2000/svg"
   xmlns="http://www.w3.org/2000/svg"
   xmlns:sodipodi="http://sodipodi.sourceforge.net/DTD/sodipodi-0.dtd"
   xmlns:inkscape="http://www.inkscape.org/namespaces/inkscape"
   width="210mm"
   height="297mm"
   viewBox="0 0 210 297"
   version="1.1"
   id="svg94"
   sodipodi:docname="tachometer-alt-solid-white.svg"
   inkscape:version="0.92.4 (33fec40, 2019-01-16)">
  <defs
     id="defs88" />
  <sodipodi:namedview
     id="base"
     pagecolor="#ffffff"
     bordercolor="#666666"
     borderopacity="1.0"
     inkscape:pageopacity="0.0"
     inkscape:pageshadow="2"
     inkscape:zoom="0.35"
     inkscape:cx="-267.14286"
     inkscape:cy="560"
     inkscape:document-units="mm"
     inkscape:current-layer="layer1"
     showgrid="false"
     inkscape:window-width="2560"
     inkscape:window-height="1384"
     inkscape:window-x="0"
     inkscape:window-y="28"
     inkscape:window-maximized="1" />
  <metadata
     id="metadata91">
    <rdf:RDF>
      <cc:Work
         rdf:about="">
        <dc:format>image/svg+xml</dc:format>
        <dc:type
           rdf:resource="http://purl.org/dc/dcmitype/StillImage" />
        <dc:title></dc:title>
      </cc:Work>
    </rdf:RDF>
  </metadata>
  <g
     inkscape:label="Laag 1"
     inkscape:groupmode="layer"
     id="layer1">
    <path
       id="path96"
       d="m 100.54167,82.76309 c -42.084632,0 -76.200002,34.11538 -76.200002,76.20001 0,13.97 3.77031,27.05629 10.33462,38.31166 1.48432,2.54529 4.31271,4.02167 7.26017,4.02167 H 159.14688 c 2.94746,0 5.77585,-1.47638 7.26016,-4.02167 6.56432,-11.25537 10.33463,-24.34166 10.33463,-38.31166 0,-42.08463 -34.11538,-76.20001 -76.2,-76.20001 z m 0,16.93334 c 3.89202,0 7.03262,2.68023 8.02217,6.25739 -0.29369,0.59796 -0.6985,1.11919 -0.91282,1.76478 l -2.43945,7.32102 c -1.35732,0.92339 -2.90248,1.59014 -4.66725,1.59014 -4.675192,0 -8.466672,-3.79148 -8.466672,-8.46666 0,-4.67519 3.78883,-8.46667 8.464022,-8.46667 z m -50.800002,76.2 c -4.67519,0 -8.46667,-3.79148 -8.46667,-8.46667 0,-4.67519 3.79148,-8.46666 8.46667,-8.46666 4.67519,0 8.46667,3.79147 8.46667,8.46666 0,4.67519 -3.79148,8.46667 -8.46667,8.46667 z m 12.7,-42.33333 c -4.67519,0 -8.46667,-3.79148 -8.46667,-8.46667 0,-4.67519 3.79148,-8.46667 8.46667,-8.46667 4.67519,0 8.46667,3.79148 8.46667,8.46667 0,4.67519 -3.79148,8.46667 -8.46667,8.46667 z M 127.7329,114.40462 111.506,163.08795 c 3.62215,3.10621 5.969,7.65969 5.969,12.80848 0,3.10092 -0.89429,5.96635 -2.3495,8.46667 H 85.957838 c -1.45521,-2.50032 -2.3495,-5.36575 -2.3495,-8.46667 0,-8.97996 7.01145,-16.25336 15.84854,-16.82486 L 115.68642,110.3856 c 1.10331,-3.32317 4.69106,-5.14615 8.03275,-4.01373 3.32581,1.1086 5.11969,4.70693 4.01373,8.03275 z m 3.87879,15.13416 4.10633,-12.31635 c 0.91811,-0.34131 1.88648,-0.59002 2.92365,-0.59002 4.67519,0 8.46667,3.79148 8.46667,8.46666 0,4.67519 -3.79148,8.46667 -8.46667,8.46667 -3.01096,-0.003 -5.52715,-1.66158 -7.02998,-4.02696 z m 19.72998,46.35765 c -4.67519,0 -8.46667,-3.79148 -8.46667,-8.46667 0,-4.67519 3.79148,-8.46666 8.46667,-8.46666 4.67519,0 8.46667,3.79147 8.46667,8.46666 0,4.67519 -3.79148,8.46667 -8.46667,8.46667 z"
       inkscape:connector-curvature="0"
       style="fill:#ffffff;stroke-width:0.26458332" />
  </g>
</svg>
